<svg width="518" height="162" viewBox="0 0 518 162" fill="none" xmlns="http://www.w3.org/2000/svg">
<path fill-rule="evenodd" clip-rule="evenodd" d="M463.973 60.2042C462.016 66.715 460.849 70.0101 458.335 74.5277C456.85 77.1966 451.75 81.0775 446.066 82.7777C455.188 85.9272 460.06 90.4241 468.499 102.053L468.491 102.053C468.491 102.053 504.743 105.626 516.601 114.159C498.338 110.406 485.379 109.49 476.775 108.881C470.589 108.443 466.653 108.165 464.616 107.106C451.732 93.4561 439.796 86.9229 428.195 87.36C417.741 88.2497 408.269 88.808 399.648 89.0977C400.915 85.7206 401.254 83.448 400.765 81.9801C406.49 81.8233 412.597 81.5168 419.133 81.0352C419.289 81.0193 419.456 81.0025 419.634 80.9846C425.122 80.4311 440.932 78.8366 452.108 71.8616C452.108 71.8616 457.587 68.3769 463.536 59.6257C463.679 59.8195 463.825 60.0123 463.973 60.2042ZM40.0818 109.164C36.4292 110.228 32.6281 111.081 28.6443 111.667C8.30767 113.172 1.15365 111.579 1.15365 111.579L1.0554 142.357C1.0554 142.357 7.93904 138.942 28.557 139.008C50.1844 139.174 67.2188 125.977 84.1682 112.845C102.061 98.9819 119.86 85.1921 142.867 87.274C144.805 87.4492 146.684 87.6225 148.509 87.7932C148.887 87.0723 149.306 86.3454 149.762 85.6395C151.673 82.6903 155.474 77.7385 158.613 77.7485C161.763 77.7586 165.425 80.5921 166.835 82.1373C168.791 82.7907 171.011 83.7314 173.546 86.0819C174.226 86.5595 174.894 87.1753 175.493 88.0535C176.037 88.8491 176.523 89.6299 176.928 90.4485C202.54 92.5564 217.621 91.8831 252.686 82.7877C254.649 80.3118 257.156 77.8841 259.341 77.8911C261.041 77.8965 262.89 78.7346 264.452 79.749C288.163 74.2216 300.659 77.1938 317.658 81.2374C322.055 82.2833 326.753 83.4009 332.025 84.4616C333.791 82.4621 335.856 80.7439 337.69 80.7497C340.778 80.7596 344.37 83.5308 345.752 85.041C347.196 85.5217 348.786 86.1631 350.544 87.4305C354.594 87.9135 358.95 88.3281 363.674 88.6466C366.236 87.487 368.829 86.4232 371.383 85.4656C375.15 84.0542 378.834 82.8728 382.213 81.9577C355.796 81.1053 338.816 76.7592 323.645 72.8761C303.594 67.7441 286.703 63.421 255.366 69.0409C207.999 77.5393 178.397 74.0617 143.332 69.9423L143.201 69.9269C121.396 67.3642 105.025 74.4297 89.4033 83.507C89.4431 84.124 89.301 84.6962 88.8169 85.0804C88.1641 85.5975 87.3202 85.5004 86.5411 85.195C84.698 86.2969 82.8617 87.4205 81.0236 88.5531C81.5022 89.6997 82.1496 91.7979 80.9012 92.6211C79.6558 93.4404 77.9883 92.2602 77.1214 91.5023C76.5179 91.8067 75.9198 92.0221 75.3554 92.1119C75.3537 92.6386 74.9674 93.4624 74.2623 94.3789L74.1312 94.5487C73.7556 95.0364 73.3312 95.5877 72.8403 96.154L72.8892 96.2553C73.2692 97.427 73.9539 100.198 72.6177 100.925C71.3383 101.618 69.6123 100.318 68.978 99.3314C68.4421 99.6124 67.864 99.8586 67.238 100.057C67.0178 100.688 66.2477 101.515 65.1591 102.343C64.527 102.825 63.7694 103.325 62.9588 103.762C63.0023 105.008 62.8655 107.132 61.4361 107.473C60.1075 107.791 59.0254 106.418 58.4268 105.409C57.8638 105.51 57.2849 105.566 56.7321 105.575C56.1639 106.088 55.0651 106.585 53.7771 106.985C53.5289 107.062 53.2563 107.141 52.9965 107.211C52.9158 108.475 52.5555 110.399 51.1678 110.605C49.6699 110.828 48.6554 109.004 48.2034 107.961C47.6337 107.97 47.1355 107.933 46.7506 107.841C46.1886 108.237 45.0662 108.567 43.7611 108.797C42.5978 109.004 41.2835 109.134 40.0818 109.164Z" fill="#5C4938"/>
<path fill-rule="evenodd" clip-rule="evenodd" d="M92.1459 77.4584C92.9577 78.2919 94.4823 79.5491 95.7653 78.8568C97.1488 78.1063 96.5661 75.7637 96.186 74.6272C94.9253 75.7584 93.4168 76.8421 92.1459 77.4584ZM84.7886 84.1662C85.66 84.8361 87.5802 86.0594 88.8169 85.0802C90.0062 84.136 89.1334 82.0558 88.5526 80.9655C87.4983 82.1383 86.1251 83.3512 84.7886 84.1662ZM77.1156 91.497C77.9808 92.2546 79.6532 93.442 80.9012 92.6209C82.1728 91.7823 81.4774 89.6207 80.997 88.4898C79.8895 89.6683 78.493 90.8108 77.1215 91.497L77.1156 91.497ZM68.8929 99.1888C69.4417 100.185 71.2756 101.652 72.6177 100.925C73.9539 100.198 73.2691 97.4268 72.8892 96.2552C71.7825 97.2055 70.5655 98.4626 68.8929 99.1888ZM58.4268 105.409C59.0256 106.417 60.1072 107.79 61.4362 107.473C62.8656 107.132 63.0022 105.008 62.9589 103.762C61.5755 104.506 60.0036 105.121 58.4268 105.409ZM48.2016 107.956C48.6527 108.999 49.6679 110.828 51.1678 110.605C52.5555 110.399 52.9157 108.475 52.9965 107.211C51.372 107.65 49.5827 107.937 48.2016 107.956Z" fill="#545454"/>
<path fill-rule="evenodd" clip-rule="evenodd" d="M33.8858 105.495C33.3821 102.432 36.221 98.7429 40.0221 96.8649C40.8733 96.4463 41.7656 96.1154 42.6811 95.9018C43.4523 94.6578 45.7874 93.4715 48.215 92.8999C49.0302 92.7035 49.8624 92.5797 50.6475 92.5471C51.0939 91.3957 53.7379 89.6793 56.1135 88.7622C56.9822 88.4256 57.8211 88.1946 58.4941 88.1499C58.7103 86.9626 60.7619 83.9663 63.2162 82.4409C63.9199 82.0042 64.6528 81.6788 65.3909 81.5583C64.9885 80.0706 67.7746 76.3123 70.289 74.4126C71.0522 73.8416 71.7856 73.4338 72.3998 73.3129C72.2107 71.5333 75.3211 67.7929 77.9411 66.0983C78.7692 65.5626 79.5493 65.2315 80.1572 65.2335C80.1624 63.6008 84.22 60.8355 87.0857 59.8147C88.0843 59.4609 88.9346 59.3214 89.4239 59.5102C89.4018 57.1752 96.722 55.0493 102.349 56.1616C108.336 57.3452 109.466 60.2748 109.55 61.5625C109.981 67.8783 100.921 70.4272 98.8176 71.0189L98.7717 71.0316C98.8704 71.5177 98.3775 72.3446 97.5665 73.255C95.6766 75.379 92.1036 77.9952 90.3861 77.978C90.4023 78.4403 89.9513 79.2509 89.2401 80.1557C87.7764 82.0178 85.2016 84.3032 83.1397 84.9578C83.1524 85.5083 82.7077 86.3701 81.9931 87.3125C80.4461 89.3499 77.6289 91.7505 75.3555 92.1119C75.3538 92.6386 74.9675 93.4625 74.2622 94.379C74.2193 94.4347 74.1757 94.4913 74.1315 94.5487C72.7641 96.3249 70.7465 98.9457 67.2383 100.057C67.018 100.688 66.2477 101.515 65.1591 102.343C63.0587 103.945 59.7367 105.526 56.7323 105.575C56.1641 106.089 55.0652 106.585 53.7773 106.985C51.3373 107.744 48.2193 108.191 46.7508 107.841C46.1889 108.237 45.0664 108.567 43.7613 108.797C41.594 109.182 38.9023 109.303 37.3923 108.999C35.3987 108.595 34.1174 106.894 33.8858 105.495ZM83.1397 84.952L83.1397 84.955L83.1397 84.952ZM102.477 60.3722C102.475 61.0186 101.945 61.5409 101.293 61.5388C100.641 61.5367 100.114 61.011 100.116 60.3646C100.118 59.7183 100.649 59.196 101.3 59.1981C101.952 59.2001 102.479 59.7258 102.477 60.3722Z" fill="#4B533A"/>
<path fill-rule="evenodd" clip-rule="evenodd" d="M101.293 61.5382C101.944 61.5403 102.474 61.018 102.476 60.3718C102.478 59.7255 101.952 59.1999 101.3 59.1979C100.648 59.1958 100.118 59.718 100.116 60.3642C100.114 61.0105 100.641 61.5361 101.293 61.5382Z" fill="#545454"/>
<path fill-rule="evenodd" clip-rule="evenodd" d="M151.277 160.147C158.814 159.976 165.916 158.327 171.255 154.398C176.496 150.537 178.897 144.817 178.923 136.438C178.93 134.468 178.471 131.017 178.471 131.017C180.058 127.139 179.397 124.549 179.587 120.638C179.697 118.422 179.784 116.126 179.832 113.869C179.886 111.332 179.894 108.853 179.838 106.596C179.782 104.219 179.652 102.078 179.439 100.394C179.177 98.354 178.78 96.9685 178.232 96.5887C178.266 94.6931 178.002 93.1588 177.503 91.7884C177.02 90.4524 176.325 89.2703 175.493 88.0535C174.894 87.1753 174.226 86.5595 173.546 86.082C171.011 83.7314 168.792 82.7908 166.835 82.1374C165.425 80.5922 161.763 77.7586 158.613 77.7485C155.475 77.7385 151.673 82.6903 149.762 85.6395C148.565 87.4913 147.625 89.4871 147.018 91.1404C145.082 96.724 146.523 101.005 146.523 101.005C145.398 105.17 144.649 121.13 147.298 141.619C147.572 143.728 147.83 145.59 148.071 147.251C148.362 149.223 148.632 150.902 148.885 152.323C149.571 156.191 150.109 158.179 150.501 159.189C151.018 160.525 151.277 160.147 151.277 160.147Z" fill="#4B533A"/>
<path fill-rule="evenodd" clip-rule="evenodd" d="M276.597 123.027C277.541 125.761 278.354 128.611 279.03 131.459C279.036 131.477 279.041 131.483 279.041 131.483C280.624 127.581 280.05 124.968 280.239 121.033C280.349 118.803 280.442 116.506 280.489 114.235C280.543 111.683 280.551 109.173 280.496 106.902C280.441 104.51 280.31 102.366 280.099 100.671C279.837 98.6191 279.448 97.2175 278.901 96.8354C278.936 94.928 278.661 93.3974 278.163 92.0185C277.682 90.6742 277.001 89.4858 276.171 88.2614C275.575 87.3778 274.903 86.7591 274.225 86.2786C271.698 83.9136 269.486 82.9638 267.535 82.3064C266.13 80.7517 262.481 77.9008 259.341 77.8908C256.213 77.8808 252.423 82.8632 250.518 85.8307C249.325 87.694 248.388 89.7022 247.783 91.3656C248.05 91.8102 248.375 92.2354 248.75 92.6458C250.679 94.7726 253.996 96.5177 258.06 98.3747C258.567 98.6069 259.08 98.844 259.61 99.0761C261.753 100.034 263.224 100.782 264.272 101.471C265.89 102.537 266.504 103.452 267.013 104.756C267.234 105.321 267.443 105.973 267.703 106.729C267.703 106.729 269.365 108.232 269.689 110.625C269.706 110.752 269.716 110.899 269.727 111.032C269.727 111.032 272.127 112.192 274.818 118.424C275.459 119.907 276.048 121.44 276.597 123.027Z" fill="#4B533A"/>
<path fill-rule="evenodd" clip-rule="evenodd" d="M281.638 152.933C281.783 148.79 281.277 142.853 280.104 136.528C278.976 130.439 277.221 123.992 274.818 118.429C272.127 112.191 269.727 111.031 269.727 111.031C269.727 111.031 270.778 118.059 266.717 124.028C262.605 130.071 259.208 135.448 256.635 140.229C258.49 142.021 260.764 143.44 261.435 144.192C261.919 144.729 262.328 145.249 262.686 145.769C265.476 149.783 265.145 153.273 272.152 157.784C280.06 162.869 281.387 160.257 281.638 152.933Z" fill="#344E57"/>
<path fill-rule="evenodd" clip-rule="evenodd" d="M246.609 126.602C247.213 128.65 248.052 130.584 249.438 132.629C250.99 134.916 253.231 137.337 256.635 140.23C259.208 135.449 262.605 130.072 266.717 124.028C270.778 118.06 269.727 111.032 269.727 111.032C269.547 108.409 267.703 106.738 267.703 106.738C266.441 103.103 266.519 102.17 259.615 99.0821C259.085 98.8441 258.567 98.612 258.053 98.3798C253.203 96.163 249.419 94.0978 247.789 91.3669C245.859 96.9851 247.295 101.289 247.295 101.289C246.475 104.346 245.857 113.737 246.609 126.602Z" fill="#4B533A"/>
<path fill-rule="evenodd" clip-rule="evenodd" d="M345.796 130.986C344.82 128.85 344.024 126.632 343.391 124.38C342.569 121.45 342.045 118.498 341.762 115.715C340.656 124.461 338.911 127.528 338.911 127.528C338.911 127.528 338.991 120.106 337.546 113.541C336.311 107.939 335.09 103.455 336.419 100.649C337.238 98.9272 340.111 98.0184 341.632 100.134C342.163 100.874 342.525 101.983 342.581 103.562C342.729 103.17 343.436 101.583 346.016 99.2287C347.12 98.2246 348.561 97.0769 350.452 95.8291C352.044 94.7762 353.721 93.7627 355.443 92.7942C355.086 92.1325 354.689 91.4763 354.242 90.8256C353.655 89.9672 353 89.3661 352.333 88.8993C349.847 86.6019 347.671 85.6794 345.752 85.0407C344.37 83.5305 340.778 80.7593 337.69 80.7495C334.612 80.7396 330.885 85.5841 329.011 88.4666C327.837 90.2765 326.915 92.2298 326.32 93.8457C324.421 99.303 325.835 103.483 325.835 103.483C324.829 117.682 334.085 134.963 336.361 136.179C339.277 135.802 342.829 133.423 345.791 130.986L345.796 130.986Z" fill="#4B533A"/>
<path fill-rule="evenodd" clip-rule="evenodd" d="M341.769 115.72C341.273 110.798 341.579 106.416 342.554 103.659C342.554 103.659 342.565 103.682 342.593 103.721C342.467 97.4566 337.533 98.3085 336.425 100.65C335.096 103.456 336.318 107.938 337.552 113.54C338.997 120.105 338.917 127.528 338.917 127.528C338.917 127.528 340.668 124.466 341.769 115.72Z" fill="#545454"/>
<path fill-rule="evenodd" clip-rule="evenodd" d="M374.323 125.307C366.041 136.84 357.365 147.302 349.646 137.471L349.271 137C341.756 126.743 340.179 110.382 342.548 103.661C342.548 103.661 343.435 100.469 350.453 95.8284C356.717 91.6893 364.203 88.1574 371.383 85.4655C378.834 82.6735 385.961 80.7819 391.046 80.0704C400.024 78.806 403.514 79.8807 399.026 90.6644C395.047 100.224 390.711 100.568 386.423 104.854C385.877 105.406 385.313 106.013 384.766 106.722C383.509 108.347 380.992 115.627 376.881 117.361C374.57 118.335 371.771 117.69 367.792 116.313C371.535 118.916 376.094 122.838 374.323 125.307Z" fill="#344E57"/>
<path fill-rule="evenodd" clip-rule="evenodd" d="M455.554 40.7084C455.577 40.0499 455.891 37.3445 458.845 32.8884C458.689 31.1745 457.405 29.2643 455.59 29.2585C453.776 29.2527 452.485 31.1547 452.313 32.8675C455.238 37.337 455.534 40.0444 455.554 40.7084ZM455.554 40.7084C455.514 42.9357 454.745 45.9585 453.369 49.247C454.324 55.3593 455.49 60.5139 455.49 60.5139C455.49 60.5139 456.69 55.3669 457.684 49.2607C456.335 45.9635 455.579 42.9359 455.554 40.7084Z" fill="#545454"/>
<path fill-rule="evenodd" clip-rule="evenodd" d="M472.799 68.555C482.834 74.8143 487.134 62.6948 490.746 49.7539C491.52 46.9829 486.2 44.9741 482.039 43.8632C486.076 43.8091 488.685 43.4892 490.434 41.8607C493.521 38.99 493.394 31.697 493.984 29.8462C494.244 29.0385 494.535 28.3168 494.848 27.6485C497.263 22.4518 501 20.745 501.427 10.9533C501.912 -0.0964994 498.485 0.0746296 490.929 4.09838C486.65 6.37637 480.94 10.3568 475.234 15.2485C469.737 19.9589 464.242 25.5205 460.027 31.2255C456.088 36.5605 455.604 39.6215 455.551 40.4892C455.56 40.6614 455.553 40.7471 455.553 40.7471L455.547 40.7473C455.547 40.7473 455.541 40.6615 455.551 40.4892C455.506 39.6215 455.045 36.5575 451.14 31.1971C446.961 25.4654 441.502 19.8687 436.035 15.1234C430.36 10.1953 424.676 6.17853 420.411 3.87326C412.881 -0.198648 409.455 -0.391654 409.87 10.661C410.235 20.4553 413.95 22.1847 416.332 27.3967C416.64 28.0669 416.932 28.7917 417.186 29.6011C417.764 31.4555 417.591 38.7476 420.66 41.638C422.383 43.2634 425.065 43.6103 429.043 43.694C424.874 44.7783 419.541 46.7531 420.298 49.529C423.827 62.4927 428.056 74.6337 438.129 68.4386C438.296 68.3429 438.451 68.2529 438.618 68.1406C448.645 61.5067 455.435 47.4946 455.553 40.7486C455.628 47.4952 462.328 61.5504 472.313 68.2482C472.372 68.2885 472.8 68.5046 472.799 68.555Z" fill="#344E57"/>
<path d="M40.0818 109.163C36.4292 110.227 32.6281 111.08 28.6443 111.666C8.30767 113.171 1.15365 111.578 1.15365 111.578M81.0237 88.5522C82.8616 87.4195 84.6982 86.2959 86.5412 85.194M89.403 83.506C105.025 74.4287 121.396 67.3633 143.201 69.9259L143.332 69.9413C178.397 74.0607 207.999 77.5383 255.366 69.0399C286.704 63.42 303.594 67.7431 323.645 72.8751C338.816 76.7582 355.796 81.1043 382.213 81.9567C378.834 82.8718 375.15 84.0532 371.383 85.4646C368.829 86.4222 366.236 87.486 363.674 88.6456C358.95 88.3271 354.593 87.9125 350.544 87.4296M332.025 84.4606C326.753 83.3999 322.055 82.2823 317.658 81.2364C300.658 77.1929 288.163 74.2206 264.452 79.748M252.686 82.7868C217.62 91.8821 202.541 92.5554 176.928 90.4475M148.509 87.7922C146.684 87.6215 144.805 87.4482 142.868 87.273C119.859 85.1911 102.061 98.9809 84.1681 112.844C67.2186 125.976 50.1844 139.173 28.557 139.007C7.93903 138.942 1.0554 142.357 1.0554 142.357M463.973 60.2032C462.016 66.7141 460.849 70.0091 458.335 74.5267C456.849 77.1957 451.75 81.0765 446.066 82.7767C455.188 85.9262 460.06 90.4232 468.498 102.052L468.491 102.052C468.491 102.052 504.742 105.625 516.601 114.158C498.339 110.405 485.379 109.489 476.775 108.88C470.589 108.442 466.653 108.164 464.616 107.105C451.732 93.4552 439.796 86.9219 428.195 87.3591C417.741 88.2488 408.269 88.807 399.647 89.0968C400.915 85.7196 401.254 83.4471 400.765 81.9791C406.49 81.8223 412.596 81.5158 419.133 81.0343C419.289 81.0184 419.456 81.0015 419.633 80.9836C425.121 80.4301 440.932 78.8356 452.108 71.8606C452.108 71.8606 457.587 68.376 463.535 59.6247C463.679 59.8185 463.825 60.0114 463.973 60.2032Z" stroke="#F79438" stroke-width="1.14545" stroke-linecap="round" stroke-linejoin="round"/>
<path fill-rule="evenodd" clip-rule="evenodd" d="M92.1459 77.4584C92.9577 78.2919 94.4823 79.5491 95.7653 78.8568C97.1488 78.1063 96.5661 75.7637 96.186 74.6272C94.9253 75.7584 93.4168 76.8421 92.1459 77.4584ZM84.7886 84.1662C85.66 84.8361 87.5802 86.0594 88.8169 85.0802C90.0062 84.136 89.1334 82.0558 88.5526 80.9655C87.4983 82.1383 86.1251 83.3512 84.7886 84.1662ZM77.1156 91.497C77.9808 92.2546 79.6532 93.442 80.9012 92.6209C82.1728 91.7823 81.4774 89.6207 80.997 88.4898C79.8895 89.6683 78.493 90.8108 77.1215 91.497L77.1156 91.497ZM68.8929 99.1888C69.4417 100.185 71.2756 101.652 72.6177 100.925C73.9539 100.198 73.2691 97.4268 72.8892 96.2552C71.7825 97.2055 70.5655 98.4626 68.8929 99.1888ZM58.4268 105.409C59.0256 106.417 60.1072 107.79 61.4362 107.473C62.8656 107.132 63.0022 105.008 62.9589 103.762C61.5755 104.506 60.0036 105.121 58.4268 105.409ZM48.2016 107.956C48.6527 108.999 49.6679 110.828 51.1678 110.605C52.5555 110.399 52.9157 108.475 52.9965 107.211C51.372 107.65 49.5827 107.937 48.2016 107.956Z" stroke="#B7B7B7" stroke-width="1.14545" stroke-linecap="round" stroke-linejoin="round"/>
<path d="M40.0221 96.8649C36.221 98.7429 33.3821 102.432 33.8858 105.495C34.1174 106.894 35.3987 108.595 37.3923 108.999C38.9023 109.303 41.594 109.182 43.7614 108.797M40.0221 96.8649C40.8733 96.4463 41.7657 96.1161 42.6812 95.9024M40.0221 96.8649C39.7363 99.4857 40.4921 103.076 41.3883 105.226M43.7614 108.797C45.0664 108.567 46.1889 108.237 46.7508 107.841M43.7614 108.797C42.9256 108.046 42.0911 106.919 41.3883 105.226M43.7614 108.797C42.9315 108.046 42.0912 106.914 41.3883 105.226M46.7508 107.841C48.2193 108.191 51.3373 107.744 53.7773 106.985M46.7508 107.841C42.8937 106.928 41.5955 97.6604 42.6812 95.9024M53.7773 106.985C55.0652 106.585 56.1641 106.089 56.7324 105.575C59.7367 105.526 63.0587 103.945 65.1591 102.343M53.7773 106.985C53.0883 106.526 52.376 105.852 51.6944 104.884C49.4441 101.688 47.9989 95.8895 48.215 92.8999M65.1591 102.343C66.2477 101.515 67.018 100.688 67.2383 100.057M65.1591 102.343C64.2391 102.112 63.2196 101.617 62.1308 100.665L62.1307 100.671C59.0996 98.0282 56.2266 92.1801 56.1135 88.7622M67.2383 100.057C70.86 98.9098 72.8932 96.1536 74.2622 94.379M67.2383 100.057C62.8723 101.436 58.0076 90.7934 58.4941 88.1499M74.2622 94.379C74.9675 93.4625 75.3538 92.6386 75.3555 92.1119M74.2622 94.379C69.1188 93.3853 64.0832 84.4625 63.2162 82.4409M75.3555 92.1119C77.6289 91.7505 80.4461 89.3499 81.9931 87.3125M75.3555 92.1119C71.7652 92.6857 65.7117 82.759 65.3909 81.5583M81.9931 87.3125C82.7077 86.3701 83.1524 85.5083 83.1397 84.9578M81.9931 87.3125C81.1908 87.1871 80.3538 86.851 79.482 86.2865C77.0907 84.7397 75.2218 82.2526 73.5766 79.9417C72.7305 78.751 70.9387 76.1293 70.2891 74.4126M81.9931 87.3125C82.7102 86.3668 83.1557 85.5022 83.1397 84.952M83.1397 84.9578L83.1397 84.952M83.1397 84.9578C83.1397 84.9559 83.1398 84.954 83.1397 84.952M83.1397 84.9578C85.2016 84.3032 87.7764 82.0178 89.2402 80.1557M89.2402 80.1557C89.9513 79.2509 90.4023 78.4403 90.3861 77.978M89.2402 80.1557C87.9193 79.7594 86.2222 78.929 82.4845 73.8844L82.4904 73.8786C81.5148 72.5705 78.6064 68.5167 77.9354 66.1036M90.3861 77.978C92.1035 77.9952 95.6768 75.379 97.5663 73.255M90.3861 77.978C87.2522 77.9446 80.152 66.8661 80.1572 65.2335M97.5663 73.255C98.3778 72.3446 98.8707 71.5177 98.7719 71.0316M97.5663 73.255C96.6523 73.0004 95.8277 72.4596 95.1918 71.9894C92.2359 69.7972 87.3552 64.1577 87.0857 59.8147M98.7719 71.0316L98.8173 71.0188M98.7719 71.0316C96.7633 71.5987 89.4584 63.5072 89.4239 59.5102M98.7719 71.0316C98.7867 71.0275 98.8018 71.0232 98.8173 71.0188M98.8173 71.0188C100.921 70.4272 109.981 67.8783 109.55 61.5625C109.465 60.2748 108.336 57.3452 102.349 56.1616C96.7218 55.0493 89.4018 57.1752 89.4239 59.5102M89.4239 59.5102C88.9346 59.3214 88.0843 59.4609 87.0857 59.8147M87.0857 59.8147C84.22 60.8355 80.1624 63.6008 80.1572 65.2335M80.1572 65.2335C79.5493 65.2315 78.7634 65.5678 77.9354 66.1036M77.9354 66.1036C75.3153 67.7981 72.2107 71.5333 72.3998 73.3129M77.9354 66.1036C78.6064 68.5167 81.5151 72.5697 82.4847 73.8836M72.3998 73.3129C71.7856 73.4338 71.0522 73.8416 70.2891 74.4126M72.3998 73.3129C72.5372 74.63 79.6305 86.07 83.134 84.9634M70.2891 74.4126C67.7746 76.3123 64.9885 80.0706 65.3909 81.5583M65.3909 81.5583C64.6528 81.6788 63.9199 82.0042 63.2162 82.4409M63.2162 82.4409C60.7619 83.9663 58.7104 86.9626 58.4941 88.1499M58.4941 88.1499C57.8211 88.1946 56.9822 88.4256 56.1135 88.7622M56.1135 88.7622C53.7379 89.6793 51.0939 91.3957 50.6475 92.5471M50.6475 92.5471C49.8624 92.5797 49.0302 92.7035 48.215 92.8999M50.6475 92.5471C49.981 94.2596 52.3356 105.652 56.7388 105.578M48.215 92.8999C45.7874 93.4715 43.4524 94.6585 42.6812 95.9024" stroke="#A6DA37" stroke-width="1.14545" stroke-linecap="round" stroke-linejoin="round"/>
<path d="M101.76 42.7133C97.4423 41.7632 93.9131 45.3801 93.8775 56.5163M95.3401 42.0372C91.0534 42.597 88.9795 46.991 92.4418 56.9621M101.293 61.5386C101.945 61.5407 102.475 61.0183 102.477 60.3719C102.479 59.7256 101.952 59.1999 101.3 59.1978C100.648 59.1957 100.118 59.718 100.116 60.3644C100.114 61.0108 100.641 61.5365 101.293 61.5386Z" stroke="#B7B7B7" stroke-width="1.14545" stroke-linecap="round" stroke-linejoin="round"/>
<path d="M151.277 160.147C158.814 159.976 165.916 158.326 171.255 154.397C176.496 150.537 178.897 144.817 178.923 136.438M151.277 160.147C151.277 160.147 151.018 160.525 150.501 159.189M151.277 160.147L151.271 160.147C156.218 149.853 173.502 144.777 178.465 131.013C178.465 131.013 178.93 134.468 178.923 136.438M178.923 136.438C178.93 134.468 178.471 131.017 178.471 131.017M178.471 131.017C180.058 127.139 179.397 124.549 179.587 120.638M178.471 131.017C178.471 131.017 178.893 129.707 175.709 124.388C175.526 124.078 175.23 123.573 174.906 122.999C177.606 122.017 179.046 121.162 179.581 120.631C179.391 124.542 180.058 127.139 178.471 131.017ZM179.587 120.638C179.697 118.422 179.784 116.126 179.832 113.869C179.886 111.332 179.893 108.853 179.838 106.596M179.587 120.638C179.058 121.164 177.612 122.024 174.911 123.006C174.074 121.543 173.021 119.649 173.021 119.649L173.015 119.644C172.238 113.765 169.034 110.685 169.034 110.685C169.023 110.553 169.012 110.421 168.996 110.295C172.617 109.763 177.663 107.952 179.838 106.596M179.838 106.596C179.782 104.219 179.652 102.078 179.439 100.394M179.439 100.394C179.177 98.354 178.78 96.9685 178.232 96.5887M179.439 100.394C179.652 102.078 179.782 104.209 179.838 106.586C177.663 107.942 172.617 109.753 168.996 110.286C168.671 107.908 167.003 106.414 167.003 106.414C166.742 105.662 166.532 105.02 166.311 104.458M179.439 100.394C179.177 98.354 178.786 96.9611 178.237 96.5813C177.649 96.1785 165.971 99.7093 163.566 101.185C165.19 102.244 165.8 103.157 166.311 104.453M178.232 96.5887C178.266 94.6931 178.002 93.1588 177.503 91.7884M178.232 96.5887C177.643 96.1859 165.965 99.7225 163.561 101.193L163.561 101.181C162.509 100.496 161.034 99.7526 158.884 98.8007C158.352 98.5699 157.826 98.3334 157.317 98.1027C162.752 97.9139 167.923 96.6016 171.604 95.2732C174.517 94.223 176.382 92.9632 177.497 91.787C177.996 93.1574 178.266 94.6931 178.232 96.5887ZM177.503 91.7884C177.02 90.4524 176.325 89.2703 175.493 88.0535M177.503 91.7884C176.388 92.9647 174.517 94.2244 171.609 95.2747C167.928 96.6031 162.764 97.9097 157.322 98.1042C153.245 96.2585 149.917 94.5239 147.982 92.4101M175.493 88.0535C174.894 87.1753 174.226 86.5595 173.546 86.082M175.493 88.0535C174.894 87.1753 174.22 86.5603 173.54 86.0829C170.551 87.866 165.634 90.4103 160.218 91.6416C154.859 92.8558 151.022 92.7749 147.976 92.4101M173.546 86.082C171.011 83.7314 168.792 82.7908 166.835 82.1374M173.546 86.082C170.557 87.8651 165.64 90.4095 160.224 91.6407C154.865 92.855 151.028 92.774 147.982 92.4092C147.606 92.0013 147.286 91.5822 147.018 91.1404M173.546 86.082C171.011 83.7314 168.797 82.7908 166.841 82.1374L166.835 82.1374M166.835 82.1374C165.425 80.5922 161.763 77.7586 158.613 77.7485M166.835 82.1374C164.844 83.1963 162.097 84.3731 158.716 85.1297C154.629 86.0445 151.914 86.053 149.762 85.6395M158.613 77.7485C155.475 77.7385 151.673 82.6903 149.762 85.6395M158.613 77.7485C155.475 77.7385 151.673 82.6919 149.762 85.6411C151.914 86.0489 154.629 86.0461 158.715 85.1313C162.097 84.3747 164.844 83.1979 166.835 82.139C165.425 80.5938 161.763 77.7586 158.613 77.7485ZM149.762 85.6395C148.565 87.4913 147.625 89.4871 147.018 91.1404M147.018 91.1404C145.082 96.724 146.523 101.005 146.523 101.005M146.523 101.005C145.398 105.17 144.649 121.13 147.298 141.619C147.572 143.728 147.83 145.59 148.071 147.251M146.523 101.005C146.523 101.005 145.082 96.7274 147.018 91.1438C148.653 93.858 152.455 95.9033 157.322 98.1067C150.609 109.248 147.608 134.214 148.071 147.251M148.071 147.251C148.362 149.222 148.632 150.901 148.885 152.322C149.571 156.191 150.109 158.18 150.501 159.189M148.071 147.251C147.608 134.214 150.609 109.247 157.322 98.112C157.837 98.3428 158.357 98.5735 158.889 98.81C165.815 101.879 165.738 102.807 167.004 106.419C167.004 106.419 168.853 108.08 169.034 110.687M150.501 159.189C148.951 151.177 154.887 139.805 166.015 123.603C170.089 117.671 169.034 110.687 169.034 110.687M169.034 110.687C169.034 110.687 172.237 113.767 173.015 119.646C173.015 119.646 175.059 123.3 175.709 124.385C178.893 129.704 178.471 131.014 178.471 131.014C173.501 144.778 156.223 149.855 151.276 160.148L151.282 160.148C151.282 160.148 151.017 160.531 150.5 159.195C148.951 151.183 154.886 139.811 166.015 123.609C170.089 117.672 169.034 110.687 169.034 110.687Z" stroke="#A6DA37" stroke-width="1.14545" stroke-linecap="round" stroke-linejoin="round"/>
<path d="M276.597 123.021C277.541 125.755 278.354 128.611 279.03 131.459C279.036 131.477 279.041 131.483 279.041 131.483C280.624 127.581 280.05 124.968 280.239 121.033M276.597 123.021C276.048 121.434 275.459 119.907 274.818 118.424C272.127 112.192 269.727 111.032 269.727 111.032C269.716 110.899 269.705 110.766 269.688 110.64M276.597 123.021C278.637 122.203 279.781 121.492 280.239 121.033M280.239 121.033C280.349 118.803 280.442 116.506 280.489 114.235C280.543 111.683 280.551 109.173 280.496 106.902M280.496 106.902C280.441 104.51 280.31 102.366 280.099 100.671C279.837 98.6191 279.448 97.2175 278.901 96.8354M280.496 106.902C278.328 108.267 273.298 110.104 269.688 110.64M278.901 96.8354C278.936 94.9281 278.661 93.3974 278.163 92.0185M278.901 96.8354C278.314 96.4301 266.675 99.9832 264.278 101.468M278.163 92.0185C277.682 90.6742 277.001 89.4858 276.171 88.2614C275.575 87.3778 274.903 86.7591 274.225 86.2786M278.163 92.0185C277.051 93.202 275.192 94.4697 272.289 95.5265C268.62 96.8632 263.478 98.1846 258.06 98.3747M274.225 86.2786C271.698 83.9136 269.486 82.9637 267.535 82.3064M274.225 86.2786C271.245 88.0729 266.344 90.6296 260.946 91.8687C255.604 93.0906 251.786 93.0127 248.75 92.6458M267.535 82.3064C266.13 80.7517 262.481 77.9008 259.341 77.8908C256.213 77.8808 252.423 82.8632 250.518 85.8307M267.535 82.3064C265.551 83.3719 262.813 84.556 259.442 85.3174C255.369 86.238 252.663 86.2466 250.518 85.8307M250.518 85.8307C249.325 87.694 248.388 89.7022 247.783 91.3656C248.05 91.8102 248.375 92.2354 248.75 92.6458M248.75 92.6458C250.679 94.7726 253.996 96.5177 258.06 98.3747M258.06 98.3747C258.567 98.6069 259.08 98.844 259.61 99.0761C261.753 100.034 263.23 100.779 264.278 101.468M264.278 101.468C265.896 102.533 266.504 103.452 267.013 104.756C267.234 105.321 267.443 105.973 267.703 106.729C267.703 106.729 269.365 108.247 269.688 110.64" stroke="#A6DA37" stroke-width="1.14545" stroke-linecap="round" stroke-linejoin="round"/>
<path d="M269.727 111.031C279.261 132.245 269.454 146.442 271.785 152.955M269.727 111.031L269.727 111.037C269.727 111.037 272.127 112.191 274.818 118.429C277.221 123.992 278.976 130.446 280.104 136.535C281.497 147.252 278.366 153.362 276.542 154.348C275.827 154.731 273.997 154.149 271.785 152.955M269.727 111.031C273.65 126.787 262.77 141.009 261.435 144.192M269.727 111.031C269.727 111.031 270.778 118.059 266.717 124.028C262.605 130.071 259.208 135.448 256.635 140.229C258.49 142.021 260.764 143.44 261.435 144.192M269.727 111.031C273.65 126.787 262.764 141.009 261.435 144.192M271.785 152.955C268.851 151.373 265.246 148.704 262.686 145.769C262.328 145.249 261.919 144.729 261.435 144.192M281.638 152.933C281.783 148.79 281.277 142.853 280.104 136.528C281.497 147.245 278.36 153.355 276.542 154.341C274.884 155.234 267.174 150.905 262.686 145.762C265.476 149.776 265.145 153.273 272.152 157.784C280.06 162.869 281.387 160.257 281.638 152.933Z" stroke="#1AC3FB" stroke-width="1.14545" stroke-linecap="round" stroke-linejoin="round"/>
<path fill-rule="evenodd" clip-rule="evenodd" d="M246.609 126.602C247.213 128.65 248.052 130.583 249.438 132.627C250.631 120.23 253.479 106.045 258.059 98.3725C253.208 96.1557 249.419 94.0978 247.789 91.3669C245.859 96.9851 247.295 101.289 247.295 101.289C246.475 104.346 245.857 113.737 246.609 126.602ZM256.635 140.23C259.208 135.449 262.605 130.072 266.717 124.028C270.778 118.06 269.727 111.032 269.727 111.032C269.547 108.409 267.703 106.738 267.703 106.738C266.441 103.103 266.519 102.17 259.615 99.0821C259.085 98.8441 258.567 98.612 258.053 98.3798C253.474 106.047 250.631 120.231 249.438 132.629C250.99 134.916 253.231 137.337 256.635 140.23Z" stroke="#A6DA37" stroke-width="1.14545" stroke-linecap="round" stroke-linejoin="round"/>
<path d="M345.796 130.986C344.82 128.85 344.024 126.632 343.391 124.38M345.796 130.986L345.791 130.986C342.829 133.423 339.277 135.802 336.361 136.179M345.796 130.986C344.82 128.85 344.03 126.614 343.397 124.362C343.397 124.385 343.402 124.401 343.408 124.424C341.465 129.691 339.356 130.557 336.361 136.179M343.391 124.38C342.569 121.45 342.045 118.498 341.762 115.715M343.391 124.38C343.402 124.397 343.402 124.414 343.402 124.425C341.459 129.697 339.35 130.558 336.356 136.186C334.08 134.969 324.829 117.682 325.835 103.483M343.391 124.38C342.569 121.45 342.034 118.492 341.751 115.709L341.762 115.715M341.762 115.715C340.656 124.461 338.911 127.528 338.911 127.528C338.911 127.528 338.991 120.106 337.546 113.541M337.546 113.541C336.311 107.939 335.09 103.455 336.419 100.649M337.546 113.541C336.311 107.939 335.09 103.457 336.419 100.651C331.646 98.4976 327.924 96.4985 326.32 93.8457M336.419 100.649C337.238 98.9272 340.111 98.0184 341.632 100.134M336.419 100.649C332.42 98.8447 329.162 97.1493 327.265 95.0833M341.632 100.134C342.163 100.874 342.525 101.983 342.581 103.562M341.632 100.134C343.166 99.8922 344.638 99.5778 346.015 99.2295C347.119 98.2254 348.561 97.0769 350.452 95.8291M342.581 103.562C342.729 103.17 343.436 101.583 346.016 99.2287M342.581 103.562C342.525 101.983 342.163 100.873 341.632 100.133C343.166 99.8913 344.639 99.5769 346.016 99.2287M346.016 99.2287C347.12 98.2246 348.561 97.0769 350.452 95.8291M350.452 95.8291C352.044 94.7762 353.721 93.7627 355.443 92.7942M355.443 92.7942C355.086 92.1325 354.689 91.4763 354.242 90.8256M355.443 92.7942C355.086 92.1325 354.683 91.4819 354.236 90.8311L354.242 90.8256M354.242 90.8256C353.655 89.9672 353 89.3661 352.333 88.8993M354.242 90.8256C353.655 89.9672 352.994 89.3662 352.327 88.8994C349.396 90.6422 344.575 93.129 339.264 94.3323C334.014 95.5191 330.252 95.4399 327.265 95.0833M352.333 88.8993C349.847 86.6019 347.671 85.6794 345.752 85.0407M352.333 88.8993C349.402 90.642 344.581 93.1289 339.27 94.3322C334.015 95.519 330.252 95.4399 327.265 95.0833M352.333 88.8993C349.847 86.6019 347.677 85.6825 345.758 85.0438L345.752 85.0438C343.8 86.0788 341.106 87.2289 337.791 87.9685C333.783 88.8625 331.121 88.8707 329.011 88.4666M345.752 85.0407C344.37 83.5305 340.778 80.7593 337.69 80.7495M345.752 85.0407C343.8 86.0756 341.106 87.2258 337.79 87.9653C333.783 88.8594 331.121 88.862 329.011 88.4635C330.884 85.581 334.612 80.7396 337.69 80.7495M337.69 80.7495C334.612 80.7396 330.885 85.5841 329.011 88.4666M329.011 88.4666C327.837 90.2765 326.915 92.2298 326.32 93.8457M329.011 88.4666C327.837 90.2765 326.915 92.2272 326.321 93.8431C326.583 94.2749 326.896 94.6847 327.265 95.0833M326.32 93.8457C324.421 99.303 325.835 103.483 325.835 103.483M325.835 103.483C324.829 117.682 334.085 134.963 336.361 136.179" stroke="#A6DA37" stroke-width="1.14545" stroke-linecap="round" stroke-linejoin="round"/>
<path d="M337.429 113.211C337.429 113.211 334.401 113.531 333.317 113.668C332.432 114.404 331.543 115.146 330.311 115.763M337.047 111.324C337.047 111.324 334.288 110.067 333.216 109.828C332.131 110.217 331.118 110.795 329.67 110.768M336.399 108.712C336.399 108.712 334.367 106.399 333.313 105.999C332.162 105.995 331.01 106.193 329.658 105.673M329.078 87.0488C332.98 85.4715 336.869 88.3164 338.688 98.8124M334.991 85.3949C339.102 85.2457 341.752 89.0607 340.108 99.0138M341.769 115.72C341.273 110.798 341.579 106.416 342.554 103.659C342.554 103.659 342.565 103.682 342.593 103.721C342.467 97.4566 337.533 98.3085 336.425 100.65C335.096 103.456 336.318 107.938 337.552 113.54C338.997 120.105 338.917 127.528 338.917 127.528C338.917 127.528 340.668 124.466 341.769 115.72Z" stroke="#B7B7B7" stroke-width="1.14545" stroke-linecap="round" stroke-linejoin="round"/>
<path d="M393.203 92.1532C385.771 96.4062 366.34 87.4213 342.548 103.663C360.906 95.4759 380.596 105.777 384.766 106.725C385.313 106.016 385.865 105.408 386.412 104.855C389.434 101.086 391.904 96.0899 393.197 92.1532L393.203 92.1532ZM393.203 92.1532C385.771 96.4062 366.34 87.4209 342.548 103.657C342.548 103.657 343.435 100.469 350.453 95.8284C356.717 91.6893 364.197 88.1586 371.378 85.4666C384.145 81.4602 392.269 83.9938 393.868 86.0198C394.495 86.811 394.179 89.1839 393.203 92.1532ZM367.792 116.313C365.391 115.477 362.519 114.37 359.029 113.172C367.64 119.945 369.653 122.655 365.74 127.518C361.37 132.951 355.798 142.097 349.646 137.47C357.365 147.302 366.041 136.84 374.323 125.307C376.094 122.838 371.529 118.916 367.786 116.313L367.792 116.313ZM349.646 137.472C355.797 142.093 361.375 132.952 365.74 127.52C369.647 122.657 367.64 119.946 359.029 113.174C359.029 113.174 356.993 112.479 355.888 112.128C345.75 108.883 342.548 103.661 342.548 103.661C340.179 110.382 341.756 126.743 349.271 137C349.394 137.168 349.517 137.314 349.646 137.477L349.646 137.472ZM384.766 106.722C380.596 105.774 360.9 95.4728 342.548 103.66C342.548 103.66 345.75 108.881 355.888 112.127C367.339 115.791 372.77 119.094 376.881 117.361C380.992 115.627 383.509 108.347 384.766 106.722ZM391.046 80.0704C385.961 80.7819 378.834 82.6735 371.383 85.4655C384.145 81.459 392.274 83.9983 393.874 86.0186C395.328 87.8594 391.723 98.2429 386.423 104.854C390.711 100.568 395.047 100.224 399.026 90.6644C403.514 79.8807 400.035 78.806 391.057 80.0704L391.046 80.0704Z" stroke="#1AC3FB" stroke-width="1.14545" stroke-linecap="round" stroke-linejoin="round"/>
<path d="M455.554 40.7083C455.577 40.0498 455.891 37.3443 458.845 32.8883C458.69 31.1744 457.405 29.2641 455.59 29.2583C453.776 29.2525 452.485 31.1546 452.313 32.8674C455.238 37.3369 455.534 40.0443 455.554 40.7083ZM455.554 40.7083C455.515 42.9356 454.745 45.9583 453.369 49.2468C454.324 55.3592 455.49 60.5138 455.49 60.5138C455.49 60.5138 456.69 55.3667 457.684 49.2606C456.335 45.9634 455.579 42.9358 455.554 40.7083ZM465.631 13.3848C460.704 12.2928 456.681 16.451 456.64 29.2638M445.652 13.321C450.586 12.2605 454.582 16.4443 454.541 29.2571" stroke="#B7B7B7" stroke-width="1.14545" stroke-linecap="round" stroke-linejoin="round"/>
<path d="M455.553 40.7486C455.553 40.7486 460.087 44.3665 470.126 43.9809C471.224 43.9415 473.253 43.8999 473.253 43.8999C483.082 47.1438 485.743 48.9085 483.851 54.4978C481.738 60.7449 479.752 70.6815 472.799 68.5551L472.799 68.5498C472.634 68.4528 472.479 68.3613 472.313 68.2483C462.329 61.5504 455.628 47.4952 455.553 40.7486ZM455.553 40.7486C455.553 40.7486 450.996 44.3374 440.96 43.8878C439.862 43.8414 437.833 43.7868 437.833 43.7868C427.983 46.9679 425.312 48.7156 427.167 54.3168C429.241 60.5773 431.163 70.5264 438.129 68.4444L438.129 68.4386M455.553 40.7486C455.435 47.4946 448.645 61.5067 438.618 68.1408C438.451 68.2527 438.296 68.3427 438.129 68.4386M455.553 40.7486C442.008 27.4534 421.184 30.1279 417.181 29.6011L417.186 29.6011C417.764 31.4555 417.591 38.7476 420.66 41.638C422.383 43.2634 425.065 43.6103 429.043 43.694M455.553 40.7486C455.553 40.7486 450.996 44.337 440.959 43.8873M496.754 14.1498C491.541 20.3334 471.395 18.6147 455.553 40.7471M496.754 14.1498L496.759 14.1498C496.886 18.0749 496.312 23.3203 494.853 27.6473C494.541 28.3156 494.254 29.0375 493.995 29.8452C489.989 30.3411 469.183 27.5332 455.553 40.7471M496.754 14.1498C496.662 11.1939 496.165 8.98122 495.359 8.48066C493.285 7.19433 485.259 7.56498 475.234 15.2485C469.737 19.9589 464.242 25.5205 460.027 31.2255C455.306 37.6196 455.547 40.7473 455.547 40.7473M455.553 40.7471L455.547 40.7473M455.553 40.7471C439.852 18.514 419.696 20.1043 414.523 13.8875C414.634 10.9322 415.144 8.72257 415.954 8.22717C418.035 6.95411 426.059 7.37599 436.035 15.1234C441.502 19.8687 446.961 25.4654 451.14 31.1971C455.82 37.6212 455.558 40.7473 455.558 40.7473L455.553 40.7471ZM455.547 40.7473C439.847 18.5141 419.69 20.1041 414.517 13.8873L414.512 13.8872C414.36 17.8115 414.9 23.0604 416.332 27.3967C416.64 28.0669 416.922 28.7907 417.176 29.6C421.179 30.1214 442.002 27.4467 455.547 40.7473ZM429.043 43.694C428.936 43.6921 429.148 43.6962 429.043 43.694ZM429.043 43.694C431.379 43.7348 434.501 43.7038 437.833 43.7809C427.983 46.9675 425.312 48.7098 427.167 54.311C429.241 60.5715 431.163 70.5206 438.129 68.4386M429.043 43.694C424.874 44.7783 419.541 46.7531 420.298 49.529C423.827 62.4924 428.056 74.6335 438.129 68.4386M482.039 43.8632C479.64 43.8984 476.733 43.8355 473.248 43.894C483.077 47.1434 485.738 48.9027 483.846 54.4919C481.733 60.7391 479.747 70.6757 472.794 68.5492C482.828 74.8084 487.134 62.6945 490.746 49.7539C491.521 46.9829 486.2 44.9687 482.039 43.8578L482.039 43.8632ZM493.989 29.8462C489.983 30.3475 469.177 27.5396 455.547 40.7481C455.547 40.7481 460.081 44.366 470.12 43.9804C481.466 43.5455 487.351 44.7315 490.434 41.8607C493.521 38.99 493.394 31.697 493.984 29.8462L493.989 29.8462ZM490.929 4.09838C486.65 6.37637 480.941 10.3578 475.234 15.2495C485.259 7.56596 493.286 7.19537 495.359 8.48163C497.245 9.64954 497.41 20.0589 494.848 27.6485C497.263 22.4518 501 20.745 501.427 10.9533C501.912 -0.0964996 498.485 0.0746303 490.929 4.09838ZM420.411 3.87326C424.676 6.17853 430.36 10.1964 436.035 15.1244C426.059 7.37697 418.035 6.95514 415.954 8.22814C414.06 9.38399 413.829 19.7921 416.342 27.3979C413.961 22.1859 410.235 20.4553 409.87 10.661C409.455 -0.391654 412.881 -0.198648 420.411 3.87326Z" stroke="#1AC3FB" stroke-width="1.14545" stroke-linecap="round" stroke-linejoin="round"/>
</svg>
