<svg width="55" height="57" viewBox="0 0 55 57" fill="none" xmlns="http://www.w3.org/2000/svg">
<mask id="mask0_361_3112" style="mask-type:luminance" maskUnits="userSpaceOnUse" x="0" y="0" width="55" height="57">
<path d="M0.325928 0.292454H54.3719V56.9368H0.325928V0.292454Z" fill="white"/>
</mask>
<g mask="url(#mask0_361_3112)">
<path d="M37.8821 7.77379C38.1245 7.33845 38.6579 7.19166 39.0733 7.44567C42.5356 9.56408 45.4384 12.5992 47.4678 16.2229C49.5591 19.9575 50.6638 24.2332 50.6638 28.5865C50.6638 30.3272 50.4901 32.0484 50.1461 33.7315C50.4173 33.6804 50.707 33.7653 50.9164 33.9847C51.257 34.3409 51.257 34.9187 50.9164 35.2756L49.0943 37.1854C48.9288 37.3588 48.7064 37.4531 48.4785 37.4531C48.4029 37.4531 48.3274 37.443 48.2526 37.4221C47.9526 37.3372 47.7178 37.0918 47.6367 36.7767L46.9701 34.1668C46.8451 33.6804 47.1211 33.1795 47.5859 33.0493C47.9093 32.9586 48.2382 33.0709 48.451 33.3112C48.7641 31.7656 48.9227 30.1847 48.9227 28.5865C48.9227 20.5677 44.8122 13.0712 38.1952 9.02224C37.7798 8.76823 37.6397 8.20913 37.8821 7.77379ZM6.10882 37.2811C6.20425 37.2811 6.30105 37.2645 6.39649 37.2293C6.8503 37.063 7.08991 36.5421 6.93063 36.0664C6.12873 33.6653 5.72228 31.1489 5.72228 28.5865C5.72228 21.5657 8.73216 15.122 13.8917 10.8499C13.9555 11.0593 14.0908 11.2457 14.2864 11.3644C14.7032 11.6156 15.2353 11.4666 15.4762 11.0298L16.7649 8.69052C16.9201 8.40773 16.9201 8.06018 16.7649 7.77811C16.6091 7.49532 16.3214 7.32118 16.0104 7.32118H13.433C12.9518 7.32118 12.5618 7.7299 12.5618 8.23432C12.5618 8.65166 12.8302 9.00425 13.1955 9.11219C10.7266 11.0831 8.64085 13.5613 7.08716 16.3856C5.05495 20.0798 3.98048 24.2987 3.98048 28.5865C3.98048 31.3547 4.41988 34.074 5.28701 36.6694C5.41265 37.0458 5.74906 37.2811 6.10882 37.2811ZM34.7603 49.8476C32.3814 50.7614 29.8796 51.2248 27.3228 51.2248C25.73 51.2248 24.1571 51.045 22.6213 50.6873C22.8664 50.4657 22.9831 50.1095 22.8938 49.7598C22.7696 49.2734 22.2924 48.9841 21.8276 49.1144L19.3374 49.8138C19.0367 49.898 18.8019 50.1441 18.7216 50.4592C18.6413 50.7744 18.7271 51.1104 18.9475 51.3407L20.7696 53.2512C20.9399 53.4296 21.1623 53.5181 21.3855 53.5181C21.6086 53.5181 21.831 53.4296 22.0013 53.2512C22.2045 53.0382 22.2862 52.7467 22.2471 52.4704C23.9044 52.8561 25.6037 53.0504 27.3221 53.0504C30.0848 53.0504 32.7885 52.5496 35.3597 51.5609C35.8114 51.3875 36.0428 50.8629 35.8773 50.3902C35.7119 49.9167 35.2114 49.6742 34.7603 49.8476ZM36.6051 40.6659C36.6044 40.6659 36.6037 40.6659 36.603 40.6659H32.6691C32.6677 40.6659 32.667 40.6659 32.667 40.6659C32.6663 40.6659 32.6649 40.6659 32.6649 40.6659H29.2939C29.2932 40.6659 29.2926 40.6659 29.2919 40.6659C29.2912 40.6659 29.2905 40.6659 29.2898 40.6659H25.3551C25.3545 40.6659 25.3538 40.6659 25.3531 40.6659C25.3524 40.6659 25.3517 40.6659 25.351 40.6659H16.3907C15.9101 40.6659 15.5202 40.2572 15.5202 39.7535C15.5202 39.2491 15.9101 38.8404 16.3907 38.8404H17.1686V31.834C17.1686 31.3295 17.5586 30.9208 18.0398 30.9208H21.9786C22.4592 30.9208 22.8492 31.3295 22.8492 31.834V38.8404H24.4825V27.6842C24.4825 27.1805 24.8725 26.7718 25.3531 26.7718H29.2919C29.7731 26.7718 30.1631 27.1805 30.1631 27.6842V38.8404H31.7958V23.3517C31.7958 22.848 32.1857 22.4393 32.667 22.4393H36.6058C37.0864 22.4393 37.4763 22.848 37.4763 23.3517V38.8404H38.2542C38.7355 38.8404 39.1255 39.2491 39.1255 39.7535C39.1255 40.2572 38.7355 40.6659 38.2542 40.6659H36.6078C36.6065 40.6659 36.6058 40.6659 36.6051 40.6659ZM33.5376 38.8404H35.7345V24.2641H33.5376V38.8404ZM26.2236 38.8404H28.4213V28.5973H26.2236V38.8404ZM18.9104 38.8404H21.1074V32.7464H18.9104V38.8404ZM16.8027 28.2246C16.9276 28.6009 17.2647 28.837 17.6252 28.837C17.7199 28.837 17.8167 28.8204 17.9115 28.7859C24.2779 26.4624 30.1686 23.4309 35.4489 19.7618C35.5004 20.0949 35.727 20.3856 36.0565 20.49C36.5165 20.6368 37.0026 20.3641 37.1427 19.8819L37.7208 17.8837C37.7963 17.6218 37.7558 17.3383 37.6109 17.1109C37.4654 16.8835 37.2306 16.7367 36.9703 16.7101L34.9876 16.5108C34.5083 16.4633 34.0834 16.831 34.0374 17.3325C34.0024 17.7139 34.1967 18.0629 34.5022 18.2298C29.3392 21.819 23.5742 24.7865 17.3389 27.0625C16.8844 27.228 16.6448 27.7483 16.8027 28.2246ZM18.6612 9.36979C18.6612 4.36448 22.5464 0.292454 27.3221 0.292454C32.0978 0.292454 35.9831 4.36448 35.9831 9.36979C35.9831 14.3751 32.0978 18.4471 27.3221 18.4471C22.5464 18.4471 18.6612 14.3751 18.6612 9.36979ZM20.403 9.36979C20.403 13.3684 23.5069 16.6216 27.3221 16.6216C31.138 16.6216 34.242 13.3684 34.242 9.36979C34.242 5.37116 31.138 2.118 27.3221 2.118C23.5069 2.118 20.403 5.37116 20.403 9.36979ZM27.4038 12.469C26.7303 12.4906 25.8721 12.202 25.6682 11.345C25.5522 10.8557 25.0798 10.5592 24.613 10.6801C24.1461 10.8025 23.8619 11.2975 23.9786 11.7868C24.2711 13.0166 25.2158 13.9059 26.4516 14.1945V14.5363C26.4516 15.04 26.8415 15.4487 27.3228 15.4487C27.8034 15.4487 28.1934 15.04 28.1934 14.5363V14.2103C28.9857 14.0491 29.677 13.6692 30.1192 13.1331C30.5668 12.5906 30.7584 11.912 30.6725 11.1709C30.5016 9.69504 29.4244 8.77615 27.4711 8.43939C25.9888 8.18467 25.9627 7.61837 25.9531 7.40537C25.9161 6.60018 26.7557 6.35912 26.9246 6.31883C27.6146 6.15549 28.4659 6.37711 28.8133 7.24275C28.9994 7.70759 29.5095 7.92634 29.953 7.73134C30.3965 7.53562 30.6053 7.00098 30.4192 6.53614C29.9647 5.4021 29.1044 4.78255 28.1934 4.55229V4.2033C28.1934 3.69888 27.8034 3.29017 27.3228 3.29017C26.8415 3.29017 26.4516 3.69888 26.4516 4.2033V4.56093C25.0448 4.93294 24.1489 6.10152 24.2134 7.49388C24.2608 8.52142 24.8162 9.83247 27.1889 10.2412C28.8435 10.5254 28.9136 11.132 28.9438 11.3911C28.9699 11.6192 28.9266 11.7883 28.8024 11.9386C28.5524 12.2416 27.9902 12.4546 27.4038 12.469ZM54.3183 47.8033C54.3183 52.8086 50.4331 56.8806 45.6574 56.8806C40.8817 56.8806 36.9964 52.8086 36.9964 47.8033C36.9964 42.798 40.8817 38.726 45.6574 38.726C50.4331 38.726 54.3183 42.798 54.3183 47.8033ZM52.5772 47.8033C52.5772 43.8047 49.4726 40.5515 45.6574 40.5515C41.8422 40.5515 38.7382 43.8047 38.7382 47.8033C38.7382 51.8019 41.8422 55.0551 45.6574 55.0551C49.4733 55.0551 52.5772 51.8019 52.5772 47.8033ZM45.8057 46.8729C44.3241 46.6182 44.298 46.0519 44.2884 45.8382C44.2506 45.0337 45.091 44.7926 45.2599 44.7523C45.9499 44.5883 46.8012 44.8106 47.1479 45.6763C47.3347 46.1411 47.8448 46.3599 48.2883 46.1641C48.7318 45.9691 48.9398 45.4345 48.7538 44.9697C48.2993 43.8349 47.4397 43.2161 46.5286 42.9858V42.6361C46.5286 42.1324 46.1387 41.7237 45.6574 41.7237C45.1768 41.7237 44.7868 42.1324 44.7868 42.6361V42.9944C43.3801 43.3665 42.4841 44.5343 42.5486 45.9267C42.596 46.9549 43.1508 48.266 45.5235 48.6747C47.1781 48.9589 47.2488 49.5655 47.2784 49.8246C47.3051 50.0527 47.2612 50.2218 47.1369 50.3722C46.8877 50.6744 46.3254 50.8881 45.7384 50.9025C45.0649 50.9234 44.2074 50.6348 44.0035 49.7785C43.8874 49.2892 43.4144 48.9928 42.9475 49.1136C42.4814 49.2352 42.1971 49.731 42.3132 50.2203C42.6063 51.4494 43.551 52.3395 44.7868 52.628V52.9698C44.7868 53.4735 45.1768 53.8822 45.6574 53.8822C46.1387 53.8822 46.5286 53.4735 46.5286 52.9698V52.6431C47.3209 52.4827 48.0116 52.1027 48.4544 51.5666C48.9021 51.0241 49.0936 50.3455 49.0078 49.6044C48.8368 48.1278 47.7596 47.2089 45.8057 46.8729ZM17.6485 47.8033C17.6485 52.8086 13.7626 56.8806 8.98687 56.8806C4.21117 56.8806 0.325928 52.8086 0.325928 47.8033C0.325928 42.798 4.21117 38.726 8.98687 38.726C13.7626 38.726 17.6485 42.798 17.6485 47.8033ZM15.9067 47.8033C15.9067 43.8047 12.8028 40.5515 8.98687 40.5515C5.17166 40.5515 2.06773 43.8047 2.06773 47.8033C2.06773 51.8019 5.17166 55.0551 8.98687 55.0551C12.8028 55.0551 15.9067 51.8019 15.9067 47.8033ZM9.13517 46.8729C7.65358 46.6182 7.62749 46.0519 7.61788 45.8382C7.58011 45.0337 8.42046 44.7926 8.58936 44.7523C9.27935 44.5883 10.1307 44.8106 10.4781 45.6763C10.6641 46.1411 11.1743 46.3599 11.6178 46.1641C12.0613 45.9691 12.27 45.4345 12.0833 44.9697C11.6294 43.8349 10.7692 43.2161 9.85812 42.9858V42.6361C9.85812 42.1324 9.46815 41.7237 8.98756 41.7237C8.50628 41.7237 8.11632 42.1324 8.11632 42.6361V42.9944C6.70956 43.3665 5.8136 44.5343 5.87813 45.9267C5.92551 46.9549 6.48025 48.266 8.853 48.6747C10.5083 48.9589 10.5783 49.5655 10.6085 49.8246C10.6346 50.0527 10.5914 50.2218 10.4671 50.3722C10.2172 50.6744 9.65558 50.8881 9.06857 50.9025C8.39437 50.9234 7.53686 50.6348 7.33295 49.7785C7.21692 49.2892 6.74457 48.9928 6.27771 49.1136C5.81085 49.2352 5.52662 49.731 5.64333 50.2203C5.9358 51.4494 6.88051 52.3395 8.11632 52.628V52.9698C8.11632 53.4735 8.50628 53.8822 8.98756 53.8822C9.46815 53.8822 9.85812 53.4735 9.85812 52.9698V52.6431C10.6504 52.4827 11.3418 52.1027 11.7839 51.5666C12.2316 51.0241 12.4231 50.3455 12.3373 49.6044C12.1663 48.1278 11.0891 47.2089 9.13517 46.8729Z" fill="#003366"/>
</g>
</svg>
