<svg width="53" height="58" viewBox="0 0 53 58" fill="none" xmlns="http://www.w3.org/2000/svg">
<mask id="mask0_361_3065" style="mask-type:luminance" maskUnits="userSpaceOnUse" x="0" y="0" width="53" height="58">
<path d="M0.925415 0.7229H52.4652V57.3777H0.925415V0.7229Z" fill="white"/>
</mask>
<g mask="url(#mask0_361_3065)">
<path fill-rule="evenodd" clip-rule="evenodd" d="M4.34465 2.78482C3.85165 2.78482 3.40316 3.04394 3.07711 3.46073C2.75171 3.87835 2.5494 4.45279 2.5494 5.08425V41.9339H18.4624V2.78482H4.34465ZM4.41209 15.8695C3.96622 15.8695 3.60482 15.4065 3.60482 14.8355C3.60482 14.3415 3.87522 13.9289 4.23597 13.8258C4.16788 13.4568 4.13383 13.0803 4.13383 12.7029C4.13383 11.4693 4.49982 10.2341 5.2318 9.29653C5.96378 8.35897 6.92819 7.88936 7.89128 7.88936V7.89355C8.8367 7.89355 9.78147 8.3422 10.5056 9.2395C11.2317 8.34053 12.1764 7.88936 13.1206 7.88936C14.0836 7.88936 15.0474 8.35814 15.78 9.29653C16.512 10.2341 16.878 11.4685 16.878 12.7029C16.878 13.0794 16.844 13.4568 16.7759 13.8258C17.1373 13.9281 17.4077 14.3415 17.4077 14.8346C17.4077 15.4057 17.0456 15.8695 16.5997 15.8695H15.9555C15.8992 15.9508 15.8409 16.0313 15.78 16.1093L11.0765 22.1338C10.7616 22.538 10.2502 22.538 9.93533 22.1338L5.2318 16.1093C5.17091 16.0313 5.11264 15.9516 5.05634 15.8695H4.41209ZM5.9245 13.8015C5.8073 13.4526 5.74838 13.0778 5.74838 12.7029C5.74838 11.9977 5.95658 11.2924 6.37364 10.759C6.79004 10.2249 7.34066 9.95818 7.89128 9.95818V9.95399C8.4406 9.95399 8.99056 10.2223 9.40959 10.759L9.93467 11.4324C10.2502 11.8358 10.7616 11.8358 11.0765 11.4324L11.6023 10.759C12.0187 10.2257 12.5693 9.95818 13.1206 9.95818C13.6712 9.95818 14.2211 10.2249 14.6382 10.759C15.0553 11.2924 15.2635 11.9977 15.2635 12.7029C15.2635 13.0778 15.2045 13.4526 15.0873 13.8015H13.806L12.6125 12.4622L12.6118 12.4631C12.5726 12.4195 12.53 12.3801 12.4829 12.3457C12.0979 12.0622 11.6068 12.2316 11.3855 12.7247L10.7884 14.0556L10.0394 11.9482V11.949C9.98509 11.7955 9.89997 11.6563 9.78736 11.549C9.43054 11.2077 8.92444 11.3016 8.65796 11.7586L7.46637 13.8006H5.9245V13.8015ZM13.6843 15.8695L10.5056 19.9408L7.32757 15.8695H7.86968C8.14597 15.8695 8.38953 15.6917 8.53488 15.4208L9.1346 14.3944L9.96806 16.7399C10.152 17.2598 10.6313 17.4896 11.0372 17.2531C11.2212 17.1458 11.358 16.9613 11.4366 16.7424L12.2904 14.8413L12.9765 15.6112C13.1291 15.7822 13.3183 15.8661 13.5062 15.8661V15.8695H13.6843ZM14.614 24.6865C15.0598 24.6865 15.4212 25.1494 15.4212 25.7205C15.4212 26.2915 15.0598 26.7545 14.614 26.7545H6.39786C5.952 26.7545 5.59059 26.2915 5.59059 25.7205C5.59059 25.1494 5.952 24.6865 6.39786 24.6865H14.614ZM14.614 34.7605C15.0598 34.7605 15.4212 35.2234 15.4212 35.7945C15.4212 36.3656 15.0598 36.8285 14.614 36.8285H6.39786C5.952 36.8285 5.59059 36.3656 5.59059 35.7945C5.59059 35.2234 5.952 34.7605 6.39786 34.7605H14.614ZM14.614 29.7231C15.0598 29.7231 15.4212 30.186 15.4212 30.7571C15.4212 31.3282 15.0598 31.7919 14.614 31.7919H6.39786C5.952 31.7919 5.59059 31.3282 5.59059 30.7571C5.59059 30.186 5.952 29.7231 6.39786 29.7231H14.614ZM44.2827 17.914H47.3108C47.5858 17.914 47.8379 18.0599 48.0225 18.2955L48.0238 18.293C48.2065 18.527 48.3197 18.8507 48.3197 19.2071V35.7048C48.3197 36.0612 48.2065 36.3841 48.0238 36.618C47.9917 36.66 47.957 36.6969 47.921 36.7296C47.7501 36.8973 47.5387 36.9971 47.3108 36.9971H44.2827C44.0071 36.9971 43.755 36.8512 43.571 36.6164L43.5697 36.618C43.3871 36.3849 43.2738 36.0612 43.2738 35.7048V19.2071C43.2738 18.8507 43.3871 18.527 43.5697 18.293C43.6018 18.2519 43.6359 18.215 43.6719 18.1823C43.8428 18.0137 44.0549 17.914 44.2827 17.914ZM46.7052 19.9828H44.8883V34.9291H46.7052V19.9828ZM37.7754 23.6894H40.8029C41.0792 23.6894 41.3306 23.8345 41.5132 24.0684L41.5165 24.0726C41.6985 24.3066 41.8118 24.6286 41.8118 24.9825V35.704C41.8118 36.0587 41.6985 36.3807 41.5165 36.6138L41.5146 36.6164L41.5165 36.618C41.3339 36.852 41.0811 36.9971 40.8029 36.9971H37.7754C37.4965 36.9971 37.2445 36.852 37.0618 36.618C36.8791 36.3841 36.7659 36.0612 36.7659 35.704V24.9825C36.7659 24.6261 36.8791 24.3024 37.0618 24.0684C37.0919 24.0298 37.124 23.9946 37.1574 23.9636C37.3283 23.7925 37.543 23.6894 37.7754 23.6894ZM40.1973 25.7582H38.3811V34.9291H40.1973V25.7582ZM31.2675 30.8996H34.2949C34.5712 30.8996 34.8226 31.0447 35.0053 31.2787L35.0086 31.2829C35.1912 31.5168 35.3045 31.8389 35.3045 32.1928V35.704C35.3045 36.0587 35.1912 36.3807 35.0086 36.6138L35.0073 36.6164L35.0086 36.618C34.8259 36.852 34.5738 36.9971 34.2949 36.9971H31.2675C30.9892 36.9971 30.7365 36.852 30.5538 36.618C30.3718 36.3841 30.2586 36.0612 30.2586 35.704V32.1928C30.2586 31.8364 30.3718 31.5127 30.5538 31.2787C30.584 31.2401 30.616 31.2049 30.6501 31.1739C30.821 31.0028 31.0351 30.8996 31.2675 30.8996ZM33.6893 32.9685H31.8731V34.9291H33.6893V32.9685ZM24.7596 28.6245H27.7876C28.0639 28.6245 28.3154 28.7704 28.498 29.0036L28.5013 29.0078C28.6833 29.2417 28.7966 29.5638 28.7966 29.9176V35.704C28.7966 36.0587 28.6833 36.3807 28.5013 36.6138L28.4993 36.6164L28.5013 36.618C28.3186 36.852 28.0659 36.9971 27.7876 36.9971H24.7596C24.4813 36.9971 24.2292 36.852 24.0466 36.618C23.8639 36.3841 23.7506 36.0612 23.7506 35.704V29.9176C23.7506 29.5612 23.8639 29.2375 24.0466 29.0036C24.0767 28.965 24.1088 28.9298 24.1422 28.8987C24.313 28.7277 24.5278 28.6245 24.7596 28.6245ZM27.182 30.6933H25.3652V34.9291H27.182V30.6933ZM31.2302 7.72164C32.5717 7.72164 33.7862 8.41768 34.6648 9.54391C35.5441 10.6701 36.0882 12.2257 36.0882 13.944C36.0882 14.5151 35.7268 14.978 35.2809 14.978H31.2302C30.7843 14.978 30.4229 14.5151 30.4229 13.944V8.75563C30.4229 8.18455 30.7843 7.72164 31.2302 7.72164ZM33.5237 11.0064C33.119 10.4882 32.6084 10.1066 32.0374 9.91961V12.9092H34.3722C34.2255 12.1779 33.9276 11.5238 33.5237 11.0064ZM35.184 17.171C35.184 16.5999 34.8226 16.137 34.3761 16.137H29.6739V10.1142C29.6739 9.54307 29.3125 9.07933 28.8666 9.07933C27.1224 9.07933 25.5426 9.98502 24.3995 11.45C23.2563 12.9142 22.5492 14.9369 22.5492 17.171C22.5492 19.4058 23.2563 21.4285 24.3995 22.8927C25.5426 24.3569 27.1224 25.2626 28.8666 25.2626C30.6108 25.2626 32.19 24.3569 33.3338 22.8927C34.4769 21.4285 35.184 19.4058 35.184 17.171ZM32.192 21.4302C32.8624 20.5715 33.3312 19.4545 33.5001 18.2058H28.8666C28.4208 18.2058 28.0594 17.742 28.0594 17.171V11.237C27.0838 11.4526 26.2117 12.053 25.5413 12.9117C24.6902 14.0019 24.1638 15.508 24.1638 17.171C24.1638 18.8347 24.6902 20.34 25.5413 21.4302C26.3924 22.5204 27.5677 23.1946 28.8666 23.1946C30.1649 23.1946 31.3408 22.5204 32.192 21.4302ZM2.5494 44.0019V45.2162C2.5494 45.8476 2.75171 46.4221 3.07711 46.8397C3.40316 47.2565 3.85165 47.5156 4.34465 47.5156H48.9961C49.4891 47.5156 49.9376 47.2565 50.2636 46.8397C50.589 46.4221 50.7913 45.8476 50.7913 45.2162V44.0019H2.5494ZM50.7913 41.9339V5.08425C50.7913 4.45279 50.589 3.87835 50.2636 3.46157C49.9376 3.04394 49.4891 2.78482 48.9961 2.78482H20.0776V41.9339H50.7913ZM37.4677 49.5844L39.9399 55.0177C40.0558 55.2735 40.1076 55.5402 40.1076 55.7984C40.1076 56.0844 40.044 56.3561 39.9341 56.5901C39.8293 56.8123 39.6787 57.0018 39.4993 57.136C39.3193 57.2702 39.1117 57.3482 38.893 57.3482H14.447C14.2283 57.3482 14.0208 57.2702 13.8414 57.136C13.6614 57.0018 13.5108 56.8123 13.406 56.5901C13.296 56.3561 13.2325 56.0844 13.2325 55.7984C13.2325 55.5402 13.2842 55.2735 13.4008 55.0177L15.873 49.5836H4.34465C3.40578 49.5836 2.55333 49.093 1.93527 48.3014C1.31787 47.5106 0.934204 46.4187 0.934204 45.2162V5.08425C0.934204 3.88254 1.31787 2.78985 1.93527 1.99905C2.55333 1.20741 3.40578 0.716835 4.34465 0.716835H48.9961C49.9343 0.716835 50.7874 1.20741 51.4048 1.99905C52.0229 2.78985 52.4059 3.8817 52.4059 5.08425V45.2162C52.4059 46.4187 52.0229 47.5106 51.4048 48.3022C50.7874 49.093 49.9343 49.5844 48.9961 49.5844H37.4677ZM17.7377 49.5844L15.1463 55.2802H38.1945L35.6031 49.5844H17.7377Z" fill="#003366"/>
</g>
</svg>
