<svg width="45" height="57" viewBox="0 0 45 57" fill="none" xmlns="http://www.w3.org/2000/svg">
<mask id="mask0_361_3075" style="mask-type:luminance" maskUnits="userSpaceOnUse" x="7" y="6" width="10" height="11">
<path d="M7.12585 6.53389H16.7696V16.5553H7.12585V6.53389Z" fill="white"/>
</mask>
<g mask="url(#mask0_361_3075)">
<path d="M7.99824 8.08377C7.99824 7.73252 8.26951 7.44822 8.60405 7.44822H15.1818C15.5158 7.44822 15.7871 7.73252 15.7871 8.08377C15.7871 8.43439 15.5158 8.71809 15.1818 8.71809H9.20986V14.9772C9.20986 15.3272 8.9386 15.6115 8.60405 15.6115C8.26951 15.6115 7.99824 15.3272 7.99824 14.9772V8.08377ZM8.60405 16.5264C9.41902 16.5264 10.0823 15.8313 10.0823 14.9772V9.63242H15.1818C15.9962 9.63242 16.6594 8.9373 16.6594 8.08377C16.6594 7.229 15.9962 6.53389 15.1818 6.53389H8.60405C7.78908 6.53389 7.12585 7.229 7.12585 8.08377V14.9772C7.12585 15.8313 7.78908 16.5264 8.60405 16.5264Z" fill="#003366"/>
</g>
<mask id="mask1_361_3075" style="mask-type:luminance" maskUnits="userSpaceOnUse" x="28" y="6" width="10" height="11">
<path d="M28.3188 6.53389H37.9485V16.5553H28.3188V6.53389Z" fill="white"/>
</mask>
<g mask="url(#mask1_361_3075)">
<path d="M37.076 14.9772C37.076 15.3272 36.8047 15.6115 36.4696 15.6115C36.1356 15.6115 35.8644 15.3272 35.8644 14.9772V8.71811H29.8924C29.5585 8.71811 29.2872 8.43441 29.2872 8.08379C29.2872 7.73255 29.5585 7.44824 29.8924 7.44824H36.4696C36.8047 7.44824 37.076 7.73255 37.076 8.08379V14.9772ZM36.4696 6.53391H29.8924C29.078 6.53391 28.4148 7.22902 28.4148 8.08379C28.4148 8.93733 29.078 9.63244 29.8924 9.63244H34.992V14.9772C34.992 15.8313 35.6546 16.5265 36.4696 16.5265C37.2846 16.5265 37.9484 15.8313 37.9484 14.9772V8.08379C37.9484 7.22902 37.2846 6.53391 36.4696 6.53391Z" fill="#003366"/>
</g>
<mask id="mask2_361_3075" style="mask-type:luminance" maskUnits="userSpaceOnUse" x="28" y="28" width="10" height="11">
<path d="M28.3188 28.8168H37.9485V38.8382H28.3188V28.8168Z" fill="white"/>
</mask>
<g mask="url(#mask2_361_3075)">
<path d="M37.076 37.289C37.076 37.6396 36.8047 37.9245 36.4696 37.9245H29.8924C29.5585 37.9245 29.2872 37.6396 29.2872 37.289C29.2872 36.9383 29.5585 36.654 29.8924 36.654H35.8644V30.3956C35.8644 30.0449 36.1356 29.7606 36.4696 29.7606C36.8047 29.7606 37.076 30.0449 37.076 30.3956V37.289ZM36.4696 28.8463C35.6546 28.8463 34.992 29.5414 34.992 30.3956V35.7397H29.8924C29.078 35.7397 28.4148 36.4342 28.4148 37.289C28.4148 38.1431 29.078 38.8382 29.8924 38.8382H36.4696C37.2846 38.8382 37.9484 38.1431 37.9484 37.289V30.3956C37.9484 29.5414 37.2846 28.8463 36.4696 28.8463Z" fill="#003366"/>
</g>
<mask id="mask3_361_3075" style="mask-type:luminance" maskUnits="userSpaceOnUse" x="7" y="28" width="10" height="11">
<path d="M7.12585 28.8168H16.7696V38.8382H7.12585V28.8168Z" fill="white"/>
</mask>
<g mask="url(#mask3_361_3075)">
<path d="M15.1817 37.9245H8.60393C8.26939 37.9245 7.99812 37.6396 7.99812 37.289V30.3956C7.99812 30.0449 8.26939 29.7606 8.60393 29.7606C8.93847 29.7606 9.20974 30.0449 9.20974 30.3956V36.654H15.1817C15.5157 36.654 15.7869 36.9383 15.7869 37.289C15.7869 37.6396 15.5157 37.9245 15.1817 37.9245ZM15.1817 35.7397H10.0821V30.3956C10.0821 29.5414 9.4189 28.8463 8.60393 28.8463C7.78896 28.8463 7.12573 29.5414 7.12573 30.3956V37.289C7.12573 38.1431 7.78896 38.8382 8.60393 38.8382H15.1817C15.9961 38.8382 16.6593 38.1431 16.6593 37.289C16.6593 36.4342 15.9961 35.7397 15.1817 35.7397Z" fill="#003366"/>
</g>
<path d="M22.5371 33.3959C25.6898 33.3959 28.3737 30.4294 29.4922 27.1307H15.582C16.6999 30.4294 19.3845 33.3959 22.5371 33.3959Z" fill="#003366"/>
<path d="M31.5052 21.1075C31.5052 19.7812 31.2638 18.5371 30.7886 17.4115C30.2221 16.0717 29.338 14.924 28.1586 13.9998C25.7968 12.1509 22.718 11.5197 19.9245 12.3161C17.3126 13.0597 15.3047 14.8853 14.2706 17.457C13.8049 18.6145 13.5693 19.842 13.5693 21.1075C13.5693 21.8954 13.6619 22.666 13.8394 23.4103C14.1107 20.5647 16.5134 19.1217 18.649 17.8414C20.034 17.0112 21.3423 16.2276 21.9786 15.1739C22.0893 14.9897 22.2827 14.8786 22.4895 14.8779C22.4907 14.8779 22.4907 14.8779 22.4907 14.8779C22.6975 14.8779 22.8908 14.9897 23.0022 15.1733C23.5757 16.1226 25.3223 18.6986 26.4806 19.2138C26.8374 19.3722 27.1918 19.5128 27.5358 19.6492C29.2442 20.3277 31.0054 21.0289 31.2351 23.409C31.4126 22.6654 31.5052 21.8948 31.5052 21.1075Z" fill="#003366"/>
<path d="M22.5366 34.6664C18.7928 34.6664 15.6958 31.3216 14.4297 27.5365C14.4139 27.5194 14.3934 27.5089 14.3793 27.4893C14.2955 27.3726 14.2211 27.2498 14.1426 27.1307H10.5927C10.2576 27.1307 9.98689 26.8457 9.98689 26.4951C9.98689 26.1451 10.2576 25.8602 10.5927 25.8602H13.4243C12.7259 24.3975 12.3574 22.785 12.3574 21.1074C12.3574 19.6723 12.6257 18.2778 13.1536 16.9643C14.319 14.0666 16.6713 11.9254 19.6066 11.0909C22.7569 10.1931 26.2248 10.9017 28.8836 12.9834C30.2311 14.0383 31.2447 15.3555 31.8962 16.8974C32.4405 18.1869 32.7165 19.6029 32.7165 21.1074C32.7165 22.785 32.3479 24.3975 31.649 25.8602H34.4817C34.8163 25.8602 35.087 26.1451 35.087 26.4951C35.087 26.8457 34.8163 27.1307 34.4817 27.1307H30.9307C30.8522 27.2498 30.7778 27.3726 30.6946 27.4893C30.6811 27.5089 30.66 27.5163 30.6453 27.5329C29.3798 31.3185 26.2811 34.6664 22.5366 34.6664ZM31.3965 28.045H34.4817C35.2961 28.045 35.9594 27.3499 35.9594 26.4951C35.9594 25.6416 35.2961 24.9458 34.4817 24.9458H32.9666C33.3797 23.7208 33.5888 22.4343 33.5888 21.1074C33.5888 19.4746 33.2877 17.9339 32.6936 16.5271C31.9818 14.8403 30.8756 13.4016 29.4056 12.2502C27.3831 10.6672 24.879 9.79522 22.3544 9.79522C21.342 9.79522 20.3407 9.93399 19.3781 10.2085C16.1821 11.1179 13.62 13.4507 12.3498 16.6088C11.7762 18.0359 11.485 19.5495 11.485 21.1074C11.485 22.4343 11.6942 23.7208 12.1072 24.9458H10.5927C9.77773 24.9458 9.1145 25.6416 9.1145 26.4951C9.1145 27.3499 9.77773 28.045 10.5927 28.045H13.6774C15.0121 31.8294 18.235 35.5807 22.5366 35.5807C26.8388 35.5807 30.0612 31.8306 31.3965 28.045Z" fill="#003366"/>
<path d="M26.1207 23.1026C25.7862 23.1026 25.5149 23.3876 25.5149 23.7376C25.5149 24.0876 25.7862 24.3719 26.1207 24.3719C26.4552 24.3719 26.7265 24.0876 26.7265 23.7376C26.7265 23.3876 26.4552 23.1026 26.1207 23.1026Z" fill="#003366"/>
<path d="M26.1202 25.6414C25.1177 25.6414 24.3027 24.7872 24.3027 23.7372C24.3027 22.6871 25.1177 21.8324 26.1202 21.8324C27.122 21.8324 27.9376 22.6871 27.9376 23.7372C27.9376 24.7872 27.122 25.6414 26.1202 25.6414ZM18.953 25.6414C17.9505 25.6414 17.1361 24.7872 17.1361 23.7372C17.1361 22.6871 17.9505 21.8324 18.953 21.8324C19.9554 21.8324 20.7704 22.6871 20.7704 23.7372C20.7704 24.7872 19.9554 25.6414 18.953 25.6414ZM27.1056 20.8357C26.7482 20.6945 26.3791 20.5478 26.0077 20.3826C24.7134 19.8078 23.2083 17.7378 22.4496 16.592C21.6094 17.529 20.4142 18.2463 19.25 18.9438C17.0764 20.2469 15.0228 21.4774 15.0228 23.9484C15.0228 24.5729 15.1025 25.2164 15.2373 25.86H29.8347C29.97 25.2164 30.0491 24.5729 30.0491 23.9484C30.0491 22.0915 29.0396 21.6045 27.1056 20.8357Z" fill="#003366"/>
<path d="M18.9533 23.1026C18.6188 23.1026 18.3469 23.3876 18.3469 23.7376C18.3469 24.0876 18.6188 24.3719 18.9533 24.3719C19.2879 24.3719 19.5591 24.0876 19.5591 23.7376C19.5591 23.3876 19.2879 23.1026 18.9533 23.1026Z" fill="#003366"/>
<mask id="mask4_361_3075" style="mask-type:luminance" maskUnits="userSpaceOnUse" x="0" y="0" width="45" height="57">
<path d="M0.270264 0.302525H44.8119V56.4224H0.270264V0.302525Z" fill="white"/>
</mask>
<g mask="url(#mask4_361_3075)">
<path d="M2.54842 2.68601L2.56307 24.7233C2.56307 24.754 2.58064 27.8531 3.60947 31.9041C4.20942 34.2651 5.03142 36.4849 6.05204 38.5021C7.31873 41.0038 8.89711 43.199 10.7444 45.0277C14.957 49.1978 17.9473 51.4366 19.7144 52.5806C21.0736 53.4605 21.9378 53.8462 22.3298 53.9966C22.7505 53.8523 23.6896 53.4722 25.1356 52.5867C26.9987 51.4458 30.1063 49.2082 34.3288 45.0277C36.1761 43.199 37.7551 41.0038 39.0212 38.5021C40.0424 36.4849 40.8638 34.2651 41.4638 31.9041C42.4926 27.8531 42.5107 24.754 42.5107 24.7233L42.5248 2.68601H2.54842ZM22.2987 56.4596L22.0632 56.4043C21.9472 56.3773 20.8686 56.0991 18.7512 54.7574C16.0016 53.0147 12.7821 50.3239 9.18303 46.7612C7.14472 44.7434 5.40814 42.3265 4.02252 39.5779C2.91987 37.3913 2.03518 34.9915 1.39363 32.4444C0.30095 28.1086 0.288646 24.8602 0.288646 24.7245L0.272827 0.30286H44.8004L44.7846 24.7251C44.7846 24.8602 44.7723 28.1086 43.6802 32.4444C43.0386 34.9915 42.1539 37.3913 41.0513 39.5779C39.6651 42.3265 37.9291 44.7434 35.8908 46.7612C32.2846 50.3307 28.982 53.0258 26.0742 54.7715C23.8461 56.1096 22.6632 56.3834 22.5354 56.4098L22.2987 56.4596Z" fill="#003366"/>
</g>
</svg>
