<svg width="73" height="77" viewBox="0 0 73 77" fill="none" xmlns="http://www.w3.org/2000/svg">
<mask id="mask0_361_3120" style="mask-type:luminance" maskUnits="userSpaceOnUse" x="9" y="11" width="55" height="57">
<path d="M9.66675 11.1979H63.7167V67.8479H9.66675V11.1979Z" fill="white"/>
</mask>
<g mask="url(#mask0_361_3120)">
<path fill-rule="evenodd" clip-rule="evenodd" d="M50.2247 29.7732H54.7367C55.1667 29.7732 55.5156 30.1316 55.5156 30.5749C55.5156 31.0175 55.1667 31.3766 54.7367 31.3766H50.2247C49.7954 31.3766 49.4458 31.0175 49.4458 30.5749C49.4458 30.1316 49.7954 29.7732 50.2247 29.7732ZM45.7105 21.2908C45.4064 20.9785 45.4064 20.4697 45.7105 20.1574L48.9005 16.8737C49.2039 16.5592 49.6975 16.5592 50.0016 16.8737C50.3058 17.186 50.3058 17.6934 50.0016 18.0079L46.8123 21.2908C46.5075 21.6053 46.0132 21.6039 45.7105 21.2908ZM17.8668 30.5749C17.8668 30.1323 18.2164 29.7732 18.6456 29.7732H23.1577C23.5877 29.7732 23.9365 30.1316 23.9365 30.5749C23.9365 31.0175 23.5877 31.3766 23.1577 31.3766H18.6456C18.2164 31.3766 17.8668 31.0175 17.8668 30.5749ZM23.3807 18.0079C23.0766 17.6934 23.0766 17.186 23.3807 16.8737C23.6848 16.5592 24.1784 16.5592 24.4818 16.8737L27.6719 20.1574C28.1655 20.664 27.8089 21.5262 27.121 21.5262C26.9217 21.5262 26.7225 21.4477 26.5701 21.2908L23.3807 18.0079ZM35.9124 16.6427V11.9996C35.9124 11.557 36.2605 11.1979 36.6912 11.1979C37.1218 11.1979 37.47 11.557 37.47 11.9996V16.6427C37.47 17.0867 37.1218 17.4451 36.6912 17.4451C36.2605 17.4451 35.9124 17.0867 35.9124 16.6427ZM36.6912 21.1764C40.3483 21.1764 43.3237 23.9406 43.3237 27.3401C43.3237 28.7614 42.7889 30.1496 41.8185 31.2478C40.4287 32.8202 40.0434 33.9198 39.3415 35.7686C39.2395 35.7534 39.136 35.7426 39.0304 35.7426H34.3519C34.2464 35.7426 34.1422 35.7534 34.0408 35.7686C33.3389 33.9205 32.953 32.8195 31.5639 31.2478C30.5928 30.1496 30.0587 28.7614 30.0587 27.3401C30.0594 23.9406 33.0341 21.1764 36.6912 21.1764ZM37.4938 41.6437H35.8893C35.2007 41.6437 34.6484 41.0766 34.6484 40.3419H38.7347C38.7347 41.0766 38.1817 41.6437 37.4938 41.6437ZM39.7065 38.0426C39.7065 38.4247 39.403 38.7385 39.0304 38.7385H34.3519C33.9793 38.7385 33.6759 38.4247 33.6759 38.0426C33.6759 37.659 33.9793 37.3467 34.3519 37.3467H39.0304C39.403 37.3467 39.7065 37.659 39.7065 38.0426ZM32.1602 35.2245L32.6622 36.5429C31.789 37.5806 31.9924 39.1616 33.0893 39.9374V40.3649C33.0893 41.9539 34.3449 43.2478 35.8893 43.2478H37.4938C39.0374 43.2478 40.293 41.9539 40.293 40.3649V39.9374C41.3913 39.1602 41.5927 37.582 40.7202 36.5414C41.3718 34.8309 41.6933 33.773 42.9713 32.3272C44.2039 30.9326 44.8813 29.1623 44.8813 27.3401C44.8813 23.0561 41.2075 19.5723 36.6912 19.5723C32.1749 19.5723 28.501 23.0561 28.501 27.3401C28.501 29.1623 29.1785 30.9326 30.4103 32.3272C31.1961 33.2153 31.7352 34.1083 32.1602 35.2245ZM61.6174 64.7923C61.3532 64.9938 61.1644 65.1183 60.7946 65.0521C60.5296 65.0046 60.336 64.8758 60.187 64.6455C58.7602 62.4564 56.8662 60.7472 54.3949 59.4195C53.8789 59.1417 53.2588 59.5267 53.2553 60.1262L53.226 65.8998C53.226 66.0553 53.0973 66.1891 52.9456 66.1891H46.1523C46.0006 66.1891 45.872 66.0553 45.872 65.8998V56.6964C45.872 56.3589 45.665 56.0566 45.3546 55.9422C41.9842 54.7037 39.4492 52.5793 37.6049 49.4482C37.3483 49.0128 37.4693 48.4508 37.8783 48.1679C38.1586 47.9744 38.3495 47.8635 38.7109 47.9441C38.9738 48.0031 39.1619 48.1413 39.3024 48.3773C42.6616 54.0452 48.5943 55.8055 53.83 57.3584C57.2452 58.4473 59.8648 60.4572 61.8377 63.5013C62.1117 63.9237 62.0145 64.4908 61.6174 64.7923ZM35.7774 49.4482C33.9332 52.5793 31.3982 54.7037 28.0277 55.9422C27.718 56.0566 27.5104 56.3596 27.5104 56.6964V65.8998C27.5104 66.0553 27.3825 66.1891 27.2301 66.1891H20.4375C20.2857 66.1891 20.1571 66.0553 20.1571 65.8948L20.127 60.1262C20.1235 59.5217 19.4992 59.1446 18.9875 59.4195C16.5168 60.7472 14.6222 62.4564 13.196 64.6455C12.901 65.0996 12.3088 65.2061 11.8824 64.8816L11.7649 64.7923C11.3685 64.4908 11.2714 63.9237 11.5454 63.5013C13.5176 60.4565 16.1372 58.4473 19.5524 57.3584C24.7887 55.8055 30.7214 54.0452 34.0807 48.3773C34.3568 47.911 34.9427 47.7786 35.3838 48.0845L35.5034 48.1679C35.9131 48.4508 36.0333 49.0128 35.7774 49.4482ZM63.1338 62.6111C60.9833 59.2914 58.0058 57.0087 54.283 55.8242C54.2781 55.8227 54.2739 55.8206 54.2683 55.8199C49.062 54.2755 43.6767 52.6794 40.6321 47.5426C39.8917 46.2947 38.3089 45.9385 37.1295 46.7531L36.6912 47.1014C36.0564 46.4854 35.216 46.1796 34.3387 46.3775C33.6605 46.5293 33.1117 46.933 32.7496 47.5426C29.7049 52.6794 24.3203 54.2755 19.114 55.8199C19.1084 55.8213 19.1042 55.8235 19.0993 55.8242C15.3766 57.0087 12.3983 59.2914 10.2478 62.6111C9.51168 63.7467 9.77175 65.273 10.84 66.0834C11.4643 66.5576 12.0607 66.7757 12.8548 66.6332C13.5379 66.5101 14.1035 66.1323 14.4894 65.5393C15.5429 63.9244 16.8859 62.596 18.5757 61.5072L18.5988 65.9006C18.5988 66.9433 19.423 67.7925 20.4375 67.7925H27.2301C28.2438 67.7925 29.0687 66.9433 29.0687 65.9006V57.2541C32.2504 55.9703 34.8092 53.8545 36.6912 50.9537C38.5732 53.8552 41.132 55.9703 44.3136 57.2541V65.9006C44.3136 66.9433 45.1379 67.7925 46.1523 67.7925H52.9449C53.9586 67.7925 54.7836 66.9433 54.7836 65.9049L54.8067 61.5072C56.4964 62.5953 57.8394 63.9237 58.8923 65.5386C59.6816 66.7505 61.2847 67.0405 62.4249 66.1719L62.5417 66.0826C63.6106 65.273 63.8714 63.7467 63.1338 62.6111ZM51.892 51.3581C53.5573 51.3581 54.9115 49.9642 54.9115 48.2507C54.9115 46.5358 53.5573 45.1419 51.892 45.1419C50.2268 45.1419 48.8726 46.5358 48.8726 48.2507C48.8726 49.9642 50.2268 51.3581 51.892 51.3581ZM51.892 43.5385C49.3675 43.5385 47.3149 45.6514 47.3149 48.2507C47.3149 50.8486 49.3675 52.9622 51.892 52.9622C54.4165 52.9622 56.4699 50.8486 56.4699 48.2507C56.4699 45.6514 54.4165 43.5385 51.892 43.5385ZM21.491 45.1419C19.825 45.1419 18.4708 46.5358 18.4708 48.25C18.4708 49.9642 19.825 51.3581 21.491 51.3581C23.1556 51.3581 24.5098 49.9642 24.5098 48.25C24.5098 46.5358 23.1556 45.1419 21.491 45.1419ZM21.491 52.9622C24.0148 52.9622 26.0688 50.8486 26.0688 48.2507C26.0688 45.6514 24.0148 43.5385 21.491 43.5385C18.9658 43.5385 16.9132 45.6514 16.9132 48.2507C16.9132 50.8486 18.9658 52.9622 21.491 52.9622Z" fill="#003366"/>
</g>
</svg>
