<svg width="337" height="421" viewBox="0 0 337 421" fill="none" xmlns="http://www.w3.org/2000/svg">
<path fill-rule="evenodd" clip-rule="evenodd" d="M98.133 349.669C99.1331 350.284 100.298 350.641 101.528 350.641H102.623C108.036 357.545 114.96 363.995 121.901 369.522L113.243 369.821C109.664 369.964 106.9 372.995 106.9 376.583V378.102C107.044 381.684 110.079 384.449 113.659 384.313L142.071 383.33C148.013 386.78 154.316 389.989 160.867 393.091L150.73 418.986C131.808 410.179 112.322 398.388 98.0454 382.7C90.0451 372.332 91.8873 360.182 98.133 349.669ZM101.87 213.925C100.701 213.925 99.5906 213.602 98.6245 213.042C99.1754 212.115 99.4052 211.2 100.021 210.301L100.065 210.237L100.021 210.173C92.4216 221.272 89.4689 234.668 98.1767 245.953C110.571 259.573 126.647 270.165 143.117 278.508C148.896 275.581 154.693 272.941 160.345 270.564C164.695 268.79 170.398 266.431 176.884 263.561C164.532 258.139 152.929 252.807 142.247 246.61L113.979 247.597C110.4 247.733 107.364 244.968 107.221 241.386V239.867C107.221 236.278 109.985 233.248 113.564 233.105L122.068 232.804C115.126 227.279 108.197 220.829 102.779 213.925H101.87ZM98.3511 108.98C89.6895 97.7555 92.5168 84.2837 100.091 73.2346C99.5028 74.1143 98.6904 75.3982 98.1641 76.3035C99.7946 77.2451 100.834 77.2451 102.021 77.2451H103.294C108.715 84.1499 115.331 90.6024 122.275 96.1271L113.565 96.4288C109.986 96.5721 107.222 99.6021 107.222 103.191V104.71C107.365 108.291 110.401 111.057 113.981 110.92L142.459 109.933C153.184 116.153 165.084 121.166 177.489 126.609L177.845 126.767L177.489 126.923C170.932 129.827 165.168 132.212 160.781 134.002C155.278 136.316 149.637 138.879 144.01 141.714C127.386 133.338 110.86 122.727 98.3511 108.98ZM227.973 183.797L241.284 184.337C244.734 184.473 247.544 181.892 247.68 178.439V177.064C247.68 173.611 245.067 170.717 241.616 170.574L204.279 169.086C195.93 164.729 187.028 160.695 177.844 156.662C184.253 153.829 189.886 151.499 194.193 149.742C199.899 147.342 205.753 144.675 211.587 141.714C228 150.045 243.986 160.643 256.339 174.218C265.046 185.503 261.956 198.966 254.357 210.065C254.351 210.056 254.345 210.047 254.339 210.038C254.345 210.029 254.351 210.021 254.357 210.012C256.008 207.6 257.44 205.08 258.58 202.497C257.421 200.514 255.669 199.138 253.268 199.138H245.724C240.242 193.466 233.951 188.22 227.973 183.797ZM204.308 32.4309L241.616 33.9178C245.067 34.061 247.68 36.9551 247.68 40.4078V41.7832C247.544 45.236 244.788 47.8507 241.337 47.7145L228.062 47.1855C234.038 51.6092 240.258 56.8107 245.737 62.4821H253.268C255.676 62.4821 258.025 64.0075 259.182 66.0005C263.281 56.9484 263.886 46.3485 256.607 37.2627C242.331 21.5742 222.844 10.1276 203.922 1.32021L193.786 27.2152C197.373 28.9144 200.887 30.6457 204.308 32.4309Z" stroke="#808080" stroke-width="2.15312" stroke-linecap="round" stroke-linejoin="round"/>
<path fill-rule="evenodd" clip-rule="evenodd" d="M98.1265 349.665C99.1281 350.282 100.296 350.641 101.528 350.641H177.309V335.877H108.942C105.624 339.322 102.582 342.939 100.034 346.66C99.36 347.645 98.7225 348.647 98.1265 349.665ZM131.934 316.756L177.309 318.565V304.757L154.144 303.834C149.359 306.237 144.738 308.727 140.327 311.362C137.766 312.896 134.922 314.709 131.934 316.756ZM106.901 376.583C106.901 372.995 109.664 369.964 113.244 369.821L177.357 367.608V382.11L113.659 384.313C110.079 384.449 107.044 381.684 106.901 378.102V376.583Z" stroke="#DE8431" stroke-width="2.15312" stroke-linecap="round" stroke-linejoin="round"/>
<path fill-rule="evenodd" clip-rule="evenodd" d="M241.616 170.528C245.067 170.671 247.68 173.565 247.68 177.018V178.393C247.544 181.846 244.788 184.461 241.337 184.324L177.487 181.78V167.972L241.616 170.528ZM251.518 213.856C252.531 212.571 253.492 211.27 254.392 209.957C256.043 207.545 257.617 204.733 258.757 202.15C257.701 200.513 255.613 199.134 253.211 199.134L177.487 199.092V213.856H251.518ZM236.946 228.749L177.487 230.823V245.325L216.17 243.969C222.361 240.121 229.84 234.874 236.946 228.749Z" stroke="#3CC583" stroke-width="2.15312" stroke-linecap="round" stroke-linejoin="round"/>
<path fill-rule="evenodd" clip-rule="evenodd" d="M98.2861 213.008C99.2522 213.568 100.547 213.891 101.716 213.891H177.497V199.127H109.342C105.89 202.679 102.667 206.418 100.031 210.267C99.4154 211.167 98.8371 212.081 98.2861 213.008ZM132.616 180.026L177.497 181.815V168.007L154.992 167.11C149.973 169.616 145.129 172.213 140.516 174.969C138.096 176.419 135.423 178.117 132.616 180.026ZM107.232 239.834C107.232 236.245 109.996 233.215 113.576 233.071L177.497 230.858V245.36L113.991 247.563C110.411 247.699 107.376 244.934 107.232 241.352V239.834Z" stroke="#1EABDA" stroke-width="2.15312" stroke-linecap="round" stroke-linejoin="round"/>
<path fill-rule="evenodd" clip-rule="evenodd" d="M241.616 33.9172C245.067 34.0605 247.68 36.9545 247.68 40.4073V41.7827C247.544 45.2355 244.788 47.8502 241.337 47.7141L177.487 45.1693V31.3615L241.616 33.9172ZM252.168 77.2455C253.078 76.0767 253.946 74.8952 254.762 73.7029C256.456 71.2289 257.919 68.6408 259.073 65.9875C257.937 63.9204 255.731 62.4815 253.268 62.4815H177.487V77.2455H252.168ZM237.78 92.1242L177.487 94.2121V108.715L217.179 107.338C223.376 103.447 230.777 98.2092 237.78 92.1242Z" stroke="#DE58A9" stroke-width="2.15312" stroke-linecap="round" stroke-linejoin="round"/>
<path fill-rule="evenodd" clip-rule="evenodd" d="M108.977 62.4811C105.684 65.9059 102.673 69.471 100.142 73.1673C99.4381 74.1955 98.7795 75.2467 98.1608 76.3109C99.1368 76.8864 100.317 77.2451 101.504 77.2451H177.487V62.4811H108.977ZM132.017 43.364L177.487 45.1689V31.3611L154.191 30.44C150.978 32.0563 147.838 33.7124 144.787 35.4253C143.342 36.2361 141.918 37.0596 140.515 37.8978C137.923 39.4505 135.043 41.2874 132.017 43.364ZM107.222 103.188C107.222 99.5986 109.986 96.5686 113.565 96.4253L177.487 94.2117V108.714L113.981 110.917C110.401 111.053 107.365 108.288 107.222 104.706V103.188Z" stroke="#7F64EA" stroke-width="2.15312" stroke-linecap="round" stroke-linejoin="round"/>
<path fill-rule="evenodd" clip-rule="evenodd" d="M160.458 270.517C138.698 279.669 114.788 292.708 98.0453 311.107C88.5998 321.487 86.8599 331.468 86.8599 346.887C86.8599 362.306 88.5998 372.287 98.0453 382.667C89.3374 371.382 92.2902 357.986 99.8896 346.887C110.087 331.994 128.214 318.758 140.183 311.588C151.408 304.883 164.003 299.111 177.166 293.335C183.722 290.432 189.483 288.048 193.871 286.258C215.631 277.106 239.541 264.067 256.284 245.668C265.729 235.288 267.469 225.307 267.469 209.888C267.469 194.469 265.729 184.488 256.284 174.108C264.992 185.393 262.039 198.789 254.439 209.888C244.242 224.781 226.115 238.017 214.146 245.187C202.921 251.892 190.329 257.663 177.166 263.439C170.61 266.343 164.845 268.727 160.458 270.517ZM160.726 134.015C138.895 143.167 114.908 156.205 98.1114 174.605C88.6353 184.985 86.8898 194.966 86.8898 210.385C86.8898 225.803 88.8844 235.784 98.3605 246.164C89.4314 234.91 92.3377 221.484 99.9618 210.385C110.192 195.492 128.378 182.256 140.386 175.086C151.647 168.381 164.283 162.609 177.489 156.833C184.066 153.929 189.846 151.545 194.247 149.755C216.079 140.604 240.065 127.565 256.862 109.166C266.339 98.7858 268.084 88.8049 268.084 73.386C268.084 57.9671 266.339 47.9862 256.862 37.6062C265.599 48.891 262.636 62.2868 255.012 73.386C244.782 88.2789 226.596 101.514 214.588 108.685C203.327 115.39 190.694 121.161 177.489 126.937C170.911 129.841 165.128 132.225 160.726 134.015ZM100.121 73.1967C110.318 58.3037 128.537 45.0683 140.506 37.8981C141.909 37.06 143.333 36.2363 144.778 35.4256C150.006 32.4902 155.495 29.7216 161.169 27.0338L151.027 1.14191C132.113 9.94787 112.638 21.7353 98.3678 37.4169C88.9223 47.7968 87.1824 57.7777 87.1824 73.1967C87.1824 88.6155 88.9223 98.5964 98.3678 108.976C89.6599 97.6917 92.5219 84.2958 100.121 73.1967Z" stroke="#808080" stroke-width="2.15312" stroke-linecap="round" stroke-linejoin="round"/>
<path d="M5.9172 53.3069C5.83073 52.6434 5.78751 51.9757 5.78779 51.3075C5.77869 44.0989 11.297 37.9014 18.9341 36.5432C26.5712 35.1849 34.1719 39.0492 37.0415 45.7491M33.4394 61.9244L38.1199 66.2631M39.3925 35.592H48.0202V43.5897M38.1631 52.2072C37.7266 59.0062 32.408 64.6813 25.2065 66.0324C18.005 67.3835 10.7244 64.0722 7.47018 57.9655M47.9986 35.592L28.8021 53.4069C27.9608 54.1821 26.6021 54.1821 25.7608 53.4069L20.6058 48.6082C19.7645 47.833 18.4058 47.833 17.5645 48.6082L1.73279 63.284M50.1555 73.4611C51.0211 74.2087 51.3774 75.3348 51.0846 76.3974C50.7919 77.46 49.8968 78.2898 48.7504 78.5611C47.6041 78.8325 46.3894 78.5022 45.5829 77.6998L37.214 69.9221C36.8057 69.5467 36.576 69.0356 36.576 68.5025C36.576 67.9694 36.8057 67.4583 37.214 67.0829L38.7454 65.6633C39.1504 65.2848 39.7017 65.0719 40.2768 65.0719C40.852 65.0719 41.4033 65.2848 41.8082 65.6633L50.1555 73.4611Z" stroke="#1EABDA" stroke-width="2.15312" stroke-linecap="round" stroke-linejoin="round"/>
<path d="M285.547 51.2858V45.1614C285.547 44.0131 286.426 43.2475 287.745 43.2475H294.778M285.547 61.8123V67.9368C285.547 69.0851 286.426 69.8506 287.745 69.8506H294.778M326.205 61.8123V67.9368C326.205 69.0851 325.326 69.8506 324.008 69.8506H316.755M316.316 61.8123C314.338 65.0659 310.602 67.3626 305.986 67.3626C299.613 67.3626 294.558 62.7693 294.558 57.4104C294.558 52.0515 299.833 47.4582 305.986 47.4582H306.203M321.151 78.6545C317.195 75.2095 311.92 73.1042 305.986 73.1042C300.052 73.1042 294.778 75.2095 290.822 78.6545M306.206 47.4582V67.3626M294.558 57.2188H309.063M324.141 45.7834V42.7212M334.691 51.9078L325.9 36.5968C325.02 35.2571 322.823 35.2571 321.944 36.5968L313.153 51.9078C312.274 53.2475 313.372 54.7786 315.131 54.7786H332.713C334.471 54.7786 335.57 53.2475 334.691 51.9078Z" stroke="#3CC583" stroke-width="2.15312" stroke-linecap="round" stroke-linejoin="round"/>
<path d="M20.2667 209.274H6.13589C3.70497 209.274 1.73398 207.561 1.73279 205.447V181.525C1.73398 179.411 3.70497 177.698 6.13589 177.698H39.1473C41.5779 177.698 43.5483 179.412 43.5483 181.525V193.965M1.73279 185.172H43.5483M1.73279 201.055H22.0344M1.73279 193.126H43.5483M18.8134 185.172V209.274M31.0581 185.172V193.965M43.6279 205.949L37.4916 213.361C37.2221 213.691 36.7989 213.9 36.3354 213.932C35.873 213.961 35.4204 213.808 35.1016 213.515L31.9323 210.65M37.9803 220.761C45.2733 220.761 51.1853 215.62 51.1853 209.278C51.1853 202.936 45.2733 197.795 37.9803 197.795C30.6874 197.795 24.7753 202.936 24.7753 209.278C24.7753 215.62 30.6874 220.761 37.9803 220.761Z" stroke="#92BD39" stroke-width="2.15312" stroke-linecap="round" stroke-linejoin="round"/>
<path d="M307.045 196.421H287.697C286.51 196.421 285.547 195.583 285.547 194.549V179.57C285.547 178.536 286.51 177.698 287.697 177.698H322.093C323.28 177.698 324.243 178.536 324.243 179.57V188.932M285.556 184.251L293.08 177.698M324.251 184.251L316.727 177.698M285.556 189.868L293.08 196.421M309.194 183.315H302.414C301.503 183.322 300.74 183.917 300.631 184.705C300.522 185.492 301.102 186.228 301.984 186.423L307.84 187.696C308.723 187.892 309.302 188.627 309.193 189.415C309.084 190.202 308.321 190.797 307.41 190.804H300.596M304.904 183.315V181.443M304.904 192.676V190.804M315.652 205.782H317.802M322.101 205.782H324.251M328.551 205.782H330.7M315.652 209.527H317.802M322.101 209.527H324.251M328.551 209.527H330.7M315.652 213.272H317.802M322.101 213.272H324.251M328.551 213.272H330.7M315.652 217.016H317.802M322.101 217.016H324.251M328.551 217.016H330.7M311.353 202.038H335M287.706 200.166H307.053M289.855 203.91H307.053M315.652 192.676H330.7C330.7 192.676 335 192.676 335 196.421V217.016C335 217.016 335 220.761 330.7 220.761H315.652C315.652 220.761 311.353 220.761 311.353 217.016V196.421C311.353 196.421 311.353 192.676 315.652 192.676Z" stroke="#E0CB15" stroke-width="2.15312" stroke-linecap="round" stroke-linejoin="round"/>
<path fill-rule="evenodd" clip-rule="evenodd" d="M54.4106 339.37H41.5099V328.136C41.5099 327.102 40.5473 326.264 39.3598 326.264H24.309C23.1216 326.264 22.1589 327.102 22.1589 328.136V339.37H9.25827C8.07079 339.37 7.10815 340.208 7.10815 341.242V354.348C7.10815 355.382 8.07079 356.22 9.25827 356.22H22.1589V367.454C22.1589 368.488 23.1216 369.326 24.309 369.326H39.3598C40.5473 369.326 41.5099 368.488 41.5099 367.454V356.22H54.4106C55.5981 356.22 56.5607 355.382 56.5607 354.348V341.242C56.5607 340.208 55.5981 339.37 54.4106 339.37ZM33.9845 346.835C33.5008 346.262 32.7328 345.923 31.9161 345.923C31.0994 345.923 30.3315 346.262 29.8477 346.835L25.8464 351.62C25.2763 352.32 25.1937 353.236 25.6314 354.005C26.0596 354.768 26.9383 355.26 27.9126 355.284H35.7562C36.7313 355.259 37.6112 354.768 38.0438 354.007C38.4765 353.245 38.3914 352.338 37.8225 351.648L33.9845 346.835ZM21.0839 345.923C21.0839 346.957 22.0465 347.795 23.234 347.795C24.4215 347.795 25.3841 346.957 25.3841 345.923C25.3841 344.889 24.4215 344.05 23.234 344.05C22.0465 344.05 21.0839 344.889 21.0839 345.923ZM29.6499 341.242C29.6499 342.276 30.6126 343.114 31.8 343.114C32.9875 343.114 33.9501 342.276 33.9501 341.242C33.9501 340.208 32.9875 339.37 31.8 339.37C30.6126 339.37 29.6499 340.208 29.6499 341.242ZM38.2848 345.923C38.2848 346.957 39.2474 347.795 40.4349 347.795C41.6223 347.795 42.585 346.957 42.585 345.923C42.585 344.889 41.6223 344.05 40.4349 344.05C39.2474 344.05 38.2848 344.889 38.2848 345.923Z" stroke="#DE8431" stroke-width="2.15312" stroke-linecap="round" stroke-linejoin="round"/>
</svg>
