<svg width="597" height="344" viewBox="0 0 597 344" fill="none" xmlns="http://www.w3.org/2000/svg">
<path fill-rule="evenodd" clip-rule="evenodd" d="M273.233 242.768C151.212 245.571 56.3518 266.818 56.3518 292.611C56.3518 320.312 165.758 342.769 300.718 342.769C435.678 342.769 545.085 320.312 545.085 292.611C545.085 266.798 450.078 245.539 327.922 242.762C329.014 245.449 330.162 248.153 331.394 250.834C420.916 253.853 489.229 269.867 489.229 289.169C489.229 310.624 404.83 328.016 300.718 328.016C196.606 328.016 112.207 310.624 112.207 289.169C112.207 269.884 180.399 253.881 269.805 250.842C271.02 248.161 272.154 245.456 273.233 242.768Z" fill="#344E57"/>
<path fill-rule="evenodd" clip-rule="evenodd" d="M269.805 250.841C180.399 253.881 112.207 269.884 112.207 289.169C112.207 310.623 196.606 328.016 300.718 328.016C404.83 328.016 489.229 310.623 489.229 289.169C489.229 269.866 420.916 253.852 331.394 250.833C332.83 253.958 334.379 257.052 336.083 260.051C399.974 263.288 447.338 275.097 447.338 289.169C447.338 305.735 381.694 319.164 300.718 319.164C219.742 319.164 154.098 305.735 154.098 289.169C154.098 275.11 201.376 263.31 265.18 260.06C266.859 257.061 268.387 253.967 269.805 250.841Z" fill="#3B5649"/>
<path fill-rule="evenodd" clip-rule="evenodd" d="M265.18 260.06C201.376 263.31 154.098 275.11 154.098 289.169C154.098 305.735 219.742 319.165 300.718 319.165C381.694 319.165 447.338 305.735 447.338 289.169C447.338 275.097 399.974 263.288 336.082 260.051C337.422 262.41 338.857 264.71 340.407 266.921C386.442 270.168 419.41 278.905 419.41 289.173C419.41 302.208 366.27 312.776 300.717 312.776C235.165 312.776 182.025 302.208 182.025 289.173C182.025 278.913 214.942 270.182 260.92 266.929C262.446 264.719 263.86 262.419 265.18 260.06Z" fill="#3B5649"/>
<path fill-rule="evenodd" clip-rule="evenodd" d="M276.957 233.139C283.431 216.063 288.837 201.804 300.511 201.804C312.173 201.804 317.581 215.935 324.077 232.917C328.353 244.089 333.098 256.494 340.408 266.922C386.443 270.169 419.412 278.905 419.412 289.173C419.412 302.209 366.271 312.777 300.718 312.777C235.167 312.777 182.026 302.209 182.026 289.173C182.026 278.913 214.943 270.183 260.921 266.929C268.071 256.579 272.741 244.262 276.957 233.139Z" fill="#C773A6" fill-opacity="0.66"/>
<path d="M542.935 187.879V158.373M547.55 166.241V180.011M552.164 164.274V181.978M556.778 162.307V183.945M561.393 160.34V185.912M589.078 172.135V158.373M584.464 166.241V172.107M579.85 164.274V173.11M575.235 162.307V179.999M570.621 160.34V185.912M566.007 154.439V191.813M577.543 183.945H593.693C593.693 183.945 596 183.945 596 185.912V197.712C596 197.712 596 199.679 593.693 199.679H577.543C577.543 199.679 575.235 199.679 575.235 197.712V185.912C575.235 185.912 575.235 183.945 577.543 183.945ZM582.734 191.935C582.734 193.293 584.025 194.394 585.618 194.394C587.21 194.394 588.502 193.293 588.502 191.935C588.502 190.577 587.21 189.476 585.618 189.476C584.025 189.476 582.734 190.577 582.734 191.935ZM591.386 180.992C591.386 178.276 588.803 176.075 585.618 176.075C582.432 176.075 579.85 178.276 579.85 180.992V183.943H591.386V180.992Z" stroke="#1AC3FB" stroke-width="2" stroke-linecap="round" stroke-linejoin="round"/>
<path fill-rule="evenodd" clip-rule="evenodd" d="M279.772 159.779C279.77 169.557 289.149 177.484 300.718 177.484C312.288 177.484 321.666 169.557 321.664 159.779C321.666 150.001 312.288 142.073 300.718 142.073C289.149 142.073 279.77 150.001 279.772 159.779Z" fill="#DE58A9" fill-opacity="0.6"/>
<path fill-rule="evenodd" clip-rule="evenodd" d="M273.233 242.768C151.212 245.571 56.3518 266.818 56.3518 292.611C56.3518 320.312 165.758 342.768 300.718 342.768C435.678 342.768 545.085 320.312 545.085 292.611C545.085 266.798 450.079 245.539 327.922 242.762C329.013 245.449 330.162 248.153 331.394 250.834C420.916 253.853 489.229 269.867 489.229 289.169C489.229 310.624 404.83 328.016 300.718 328.016C196.606 328.016 112.207 310.624 112.207 289.169C112.207 269.884 180.399 253.881 269.804 250.842C271.02 248.161 272.154 245.456 273.233 242.768Z" stroke="#4F91FC" stroke-width="2" stroke-linecap="round" stroke-linejoin="round"/>
<path fill-rule="evenodd" clip-rule="evenodd" d="M269.804 250.841C180.399 253.881 112.207 269.884 112.207 289.169C112.207 310.623 196.606 328.016 300.718 328.016C404.83 328.016 489.229 310.623 489.229 289.169C489.229 269.866 420.916 253.852 331.394 250.833C332.83 253.958 334.379 257.052 336.082 260.051C399.974 263.288 447.338 275.097 447.338 289.169C447.338 305.735 381.694 319.164 300.718 319.164C219.742 319.164 154.098 305.735 154.098 289.169C154.098 275.11 201.376 263.31 265.181 260.06C266.859 257.061 268.387 253.967 269.804 250.841Z" stroke="#1AC3FB" stroke-width="2" stroke-linecap="round" stroke-linejoin="round"/>
<path fill-rule="evenodd" clip-rule="evenodd" d="M265.18 260.06C201.376 263.31 154.098 275.11 154.098 289.169C154.098 305.735 219.742 319.165 300.718 319.165C381.694 319.165 447.338 305.735 447.338 289.169C447.338 275.097 399.974 263.288 336.082 260.051C337.422 262.41 338.857 264.71 340.407 266.921C386.441 270.168 419.41 278.905 419.41 289.173C419.41 302.208 366.27 312.776 300.717 312.776C235.165 312.776 182.025 302.208 182.025 289.173C182.025 278.913 214.942 270.182 260.92 266.929C262.446 264.719 263.86 262.419 265.18 260.06Z" stroke="#43DD93" stroke-width="2" stroke-linecap="round" stroke-linejoin="round"/>
<path d="M340.408 266.922C333.098 256.494 328.352 244.089 324.078 232.917C317.58 215.935 312.173 201.804 300.511 201.804C288.837 201.804 283.431 216.063 276.957 233.139C272.741 244.262 268.071 256.579 260.921 266.929M340.408 266.922C386.443 270.169 419.411 278.905 419.411 289.173C419.411 302.209 366.271 312.776 300.719 312.776C235.166 312.776 182.026 302.209 182.026 289.173C182.026 278.913 214.943 270.183 260.921 266.929M340.408 266.922C347.783 277.34 357.951 286.024 372.623 289.174M260.921 266.929C253.588 277.461 243.5 286.147 228.816 289.174" stroke="#FB6762" stroke-width="2" stroke-linecap="round" stroke-linejoin="round"/>
<path fill-rule="evenodd" clip-rule="evenodd" d="M279.772 159.779C279.77 169.557 289.149 177.484 300.718 177.484C312.288 177.484 321.666 169.557 321.664 159.779C321.666 150.001 312.288 142.073 300.718 142.073C289.149 142.073 279.77 150.001 279.772 159.779Z" stroke="#FB6762" stroke-width="2" stroke-linecap="round" stroke-linejoin="round"/>
<path d="M70.3156 165.679H84.2793C99.7033 165.679 112.207 176.31 112.207 189.423V261.076" stroke="#B7B7B7" stroke-width="2" stroke-linecap="round" stroke-linejoin="round"/>
<path fill-rule="evenodd" clip-rule="evenodd" d="M108.716 261.075C108.716 262.705 110.279 264.026 112.207 264.026C114.135 264.026 115.698 262.705 115.698 261.075C115.698 259.446 114.135 258.125 112.207 258.125C110.279 258.125 108.716 259.446 108.716 261.075Z" fill="#B7B7B7" stroke="#B7B7B7" stroke-width="2" stroke-linecap="round" stroke-linejoin="round"/>
<path d="M521.97 180.439H508.006C492.583 180.439 480.08 191.07 480.08 204.183V275.836" stroke="#B7B7B7" stroke-width="2" stroke-linecap="round" stroke-linejoin="round"/>
<path fill-rule="evenodd" clip-rule="evenodd" d="M483.57 275.835C483.57 277.465 482.007 278.786 480.079 278.786C478.152 278.786 476.589 277.465 476.589 275.835C476.589 274.206 478.152 272.885 480.079 272.885C482.007 272.885 483.57 274.206 483.57 275.835Z" fill="#B7B7B7" stroke="#B7B7B7" stroke-width="2" stroke-linecap="round" stroke-linejoin="round"/>
<path d="M500.557 35.4392H445.054C421.724 35.4392 402.811 51.2906 402.811 70.8441V272.456" stroke="#B7B7B7" stroke-width="2" stroke-linecap="round" stroke-linejoin="round"/>
<path fill-rule="evenodd" clip-rule="evenodd" d="M399.319 272.455C399.319 274.085 400.882 275.406 402.81 275.406C404.738 275.406 406.301 274.085 406.301 272.455C406.301 270.826 404.738 269.505 402.81 269.505C400.882 269.505 399.319 270.826 399.319 272.455Z" fill="#B7B7B7" stroke="#B7B7B7" stroke-width="2" stroke-linecap="round" stroke-linejoin="round"/>
<path d="M71.4794 24.0591H126.171C149.307 24.0591 168.062 39.9104 168.062 59.464V275.827" stroke="#B7B7B7" stroke-width="2" stroke-linecap="round" stroke-linejoin="round"/>
<path fill-rule="evenodd" clip-rule="evenodd" d="M164.571 275.827C164.571 277.457 166.134 278.778 168.062 278.778C169.99 278.778 171.553 277.457 171.553 275.827C171.553 274.198 169.99 272.877 168.062 272.877C166.134 272.877 164.571 274.198 164.571 275.827Z" fill="#B7B7B7" stroke="#B7B7B7" stroke-width="2" stroke-linecap="round" stroke-linejoin="round"/>
<path d="M8.64205 28.5696H27.2604M8.64205 22.3088H27.2604M8.64205 34.8305H17.9513M8.64205 41.0914H17.9513M17.9513 5.61312V13.9609M22.6058 9.78703H13.2967M3.98746 12.9175C2.70212 12.9175 1.66016 13.8518 1.66016 15.0044V48.3957C1.66016 48.972 2.18114 49.4392 2.82381 49.4392H17.9513M34.2423 28.5696V15.0044C34.2423 13.8518 33.2004 12.9175 31.915 12.9175M27.2604 41.0914H29.5877M29.5877 36.9175H27.2604M34.2423 41.0914H36.5696M36.5696 36.9175H34.2423M41.2242 41.0914H43.5515M43.5515 36.9175H41.2242M48.2061 41.0914H50.5334M50.5334 36.9175H48.2061M8.64205 9.78703C8.64205 14.3974 12.8099 18.1349 17.9513 18.1349C23.0926 18.1349 27.2604 14.3974 27.2604 9.78703C27.2604 5.17666 23.0926 1.43921 17.9513 1.43921C12.8099 1.43921 8.64205 5.17666 8.64205 9.78703ZM22.6058 48.3957C22.6058 48.972 23.1268 49.4392 23.7695 49.4392H54.0244C54.6671 49.4392 55.188 48.972 55.188 48.3957V34.8305C55.188 33.6779 54.1461 32.7436 52.8607 32.7436H24.9331C23.6478 32.7436 22.6058 33.6779 22.6058 34.8305V48.3957ZM36.5696 45.2653H41.2242V49.4392H36.5696V45.2653Z" stroke="#43DD93" stroke-width="2" stroke-linecap="round" stroke-linejoin="round"/>
<path d="M545.04 38.365H521.595C518.909 38.3628 516.733 36.5221 516.733 34.2521V8.55208C516.733 6.28214 518.909 4.44138 521.595 4.43921H558.087C560.773 4.44029 562.951 6.28137 562.951 8.55208L562.951 21.0146H516.728M516.728 12.4702H562.951M516.728 29.5334H545.04M535.607 12.4702V38.365M549.143 12.4702V26.2782M549.864 37.9795C549.864 36.3641 551.414 35.0546 553.325 35.0546H566.339C568.249 35.0568 569.795 36.3657 569.795 37.9795V46.754C569.795 48.3678 568.249 49.6767 566.339 49.6788H553.325C551.414 49.6788 549.864 48.3693 549.864 46.754L549.864 37.9795ZM559.832 26.2722C556.087 26.3378 553.112 28.9563 553.188 32.1219V35.0487H566.477V32.1278C566.556 28.9599 563.581 26.3378 559.832 26.2722ZM559.832 40.3182C558.81 40.2828 557.865 40.7762 557.445 41.5646C557.024 42.353 557.213 43.2781 557.922 43.9019C558.63 44.5257 559.716 44.7229 560.665 44.4001C561.615 44.0773 562.236 43.2993 562.236 42.4346C562.264 41.2892 561.187 40.3418 559.832 40.3182Z" stroke="#FB6762" stroke-width="2" stroke-linecap="round" stroke-linejoin="round"/>
<path d="M45.9302 150.929C45.9302 155.274 36.0315 158.797 23.8209 158.797C11.6102 158.797 1.71155 155.274 1.71155 150.929C1.71155 146.584 11.6102 143.061 23.8209 143.061C36.0315 143.061 45.9302 146.584 45.9302 150.929ZM45.9302 150.929V159.78M23.8209 166.662C11.6119 166.662 1.71155 163.142 1.71155 158.795M20.3299 175.415C9.78029 174.825 1.71155 171.57 1.71155 167.648M21.4936 184.324C10.3784 183.91 1.71155 180.565 1.71155 176.499V150.927M47.4919 173.069L40.731 180.689C40.4273 181.03 39.9631 181.244 39.4586 181.274C38.9541 181.304 38.4589 181.148 38.1012 180.846L34.6103 177.896M27.3049 176.499C27.3049 183.017 33.5567 188.301 41.2687 188.301C48.9806 188.301 55.2324 183.017 55.2324 176.499C55.2324 169.981 48.9806 164.697 41.2687 164.697C33.5567 164.697 27.3049 169.981 27.3049 176.499Z" stroke="#1AC3FB" stroke-width="2" stroke-linecap="round" stroke-linejoin="round"/>
</svg>
